<?xml version="1.0" encoding="UTF-8" standalone="no"?>
<!DOCTYPE svg PUBLIC "-//W3C//DTD SVG 1.1//EN"
 "http://www.w3.org/Graphics/SVG/1.1/DTD/svg11.dtd">
<!-- Generated by graphviz version 2.43.0 (0)
 -->
<!-- Title: onPacketSentISR Pages: 1 -->
<svg width="297pt" height="28pt"
 viewBox="0.00 0.00 297.00 28.00" xmlns="http://www.w3.org/2000/svg" xmlns:xlink="http://www.w3.org/1999/xlink">
<g id="graph0" class="graph" transform="scale(1 1) rotate(0) translate(4 24)">
<title>onPacketSentISR</title>
<polygon fill="white" stroke="transparent" points="-4,4 -4,-24 293,-24 293,4 -4,4"/>
<!-- Node1 -->
<g id="node1" class="node">
<title>Node1</title>
<g id="a_node1"><a xlink:title="Callback de RadioLib cuando termina la transmisión.">
<polygon fill="#bfbfbf" stroke="black" points="191,-0.5 191,-19.5 289,-19.5 289,-0.5 191,-0.5"/>
<text text-anchor="middle" x="240" y="-7.5" font-family="Helvetica,sans-Serif" font-size="10.00">onPacketSentISR</text>
</a>
</g>
</g>
<!-- Node2 -->
<g id="node2" class="node">
<title>Node2</title>
<g id="a_node2"><a xlink:href="lora__handler_8cpp.html#a0269a771b42dac59079cf8c7a605e5e2" target="_top" xlink:title="Inicializa bus SPI0, pines de la radio y configuración LoRa.">
<polygon fill="white" stroke="black" points="80,-0.5 80,-19.5 155,-19.5 155,-0.5 80,-0.5"/>
<text text-anchor="middle" x="117.5" y="-7.5" font-family="Helvetica,sans-Serif" font-size="10.00">LORA_begin</text>
</a>
</g>
</g>
<!-- Node1&#45;&gt;Node2 -->
<g id="edge1" class="edge">
<title>Node1&#45;&gt;Node2</title>
<path fill="none" stroke="midnightblue" d="M180.63,-10C172.01,-10 163.34,-10 155.32,-10"/>
<polygon fill="midnightblue" stroke="midnightblue" points="180.68,-13.5 190.68,-10 180.68,-6.5 180.68,-13.5"/>
</g>
<!-- Node3 -->
<g id="node3" class="node">
<title>Node3</title>
<g id="a_node3"><a xlink:href="main_8cpp.html#a4fc01d736fe50cf5b977f755b675f11d" target="_top" xlink:title=" ">
<polygon fill="white" stroke="black" points="0,-0.5 0,-19.5 44,-19.5 44,-0.5 0,-0.5"/>
<text text-anchor="middle" x="22" y="-7.5" font-family="Helvetica,sans-Serif" font-size="10.00">setup</text>
</a>
</g>
</g>
<!-- Node2&#45;&gt;Node3 -->
<g id="edge2" class="edge">
<title>Node2&#45;&gt;Node3</title>
<path fill="none" stroke="midnightblue" d="M69.77,-10C60.81,-10 51.85,-10 44.2,-10"/>
<polygon fill="midnightblue" stroke="midnightblue" points="69.81,-13.5 79.81,-10 69.81,-6.5 69.81,-13.5"/>
</g>
</g>
</svg>
