<?xml version="1.0" encoding="UTF-8" standalone="no"?>
<!DOCTYPE svg PUBLIC "-//W3C//DTD SVG 1.1//EN"
 "http://www.w3.org/Graphics/SVG/1.1/DTD/svg11.dtd">
<!-- Generated by graphviz version 2.43.0 (0)
 -->
<!-- Title: src/main.cpp Pages: 1 -->
<svg width="262pt" height="140pt"
 viewBox="0.00 0.00 262.00 140.00" xmlns="http://www.w3.org/2000/svg" xmlns:xlink="http://www.w3.org/1999/xlink">
<g id="graph0" class="graph" transform="scale(1 1) rotate(0) translate(4 136)">
<title>src/main.cpp</title>
<polygon fill="white" stroke="transparent" points="-4,4 -4,-136 258,-136 258,4 -4,4"/>
<!-- Node1 -->
<g id="node1" class="node">
<title>Node1</title>
<g id="a_node1"><a xlink:title=" ">
<polygon fill="#bfbfbf" stroke="black" points="96.5,-112.5 96.5,-131.5 175.5,-131.5 175.5,-112.5 96.5,-112.5"/>
<text text-anchor="middle" x="136" y="-119.5" font-family="Helvetica,sans-Serif" font-size="10.00">src/main.cpp</text>
</a>
</g>
</g>
<!-- Node2 -->
<g id="node2" class="node">
<title>Node2</title>
<g id="a_node2"><a xlink:title=" ">
<polygon fill="white" stroke="#bfbfbf" points="104.5,-0.5 104.5,-19.5 167.5,-19.5 167.5,-0.5 104.5,-0.5"/>
<text text-anchor="middle" x="136" y="-7.5" font-family="Helvetica,sans-Serif" font-size="10.00">Arduino.h</text>
</a>
</g>
</g>
<!-- Node1&#45;&gt;Node2 -->
<g id="edge1" class="edge">
<title>Node1&#45;&gt;Node2</title>
<path fill="none" stroke="midnightblue" d="M136,-112.37C136,-94.62 136,-53.67 136,-29.6"/>
<polygon fill="midnightblue" stroke="midnightblue" points="139.5,-29.59 136,-19.59 132.5,-29.59 139.5,-29.59"/>
</g>
<!-- Node3 -->
<g id="node3" class="node">
<title>Node3</title>
<g id="a_node3"><a xlink:href="gps__handler_8h.html" target="_top" xlink:title="Declaraciones del módulo GNSS (estructura GpsInfo y funciones públicas).">
<polygon fill="white" stroke="black" points="24,-56.5 24,-75.5 108,-75.5 108,-56.5 24,-56.5"/>
<text text-anchor="middle" x="66" y="-63.5" font-family="Helvetica,sans-Serif" font-size="10.00">gps_handler.h</text>
</a>
</g>
</g>
<!-- Node1&#45;&gt;Node3 -->
<g id="edge2" class="edge">
<title>Node1&#45;&gt;Node3</title>
<path fill="none" stroke="midnightblue" d="M124.75,-112.32C114.2,-104.18 98.2,-91.84 85.56,-82.09"/>
<polygon fill="midnightblue" stroke="midnightblue" points="87.51,-79.17 77.45,-75.83 83.23,-84.71 87.51,-79.17"/>
</g>
<!-- Node5 -->
<g id="node5" class="node">
<title>Node5</title>
<g id="a_node5"><a xlink:href="lora__handler_8h.html" target="_top" xlink:title="Definición de las funciones de transmisión LoRa (SX1262/RadioLib) para el nodo de la mascota.">
<polygon fill="white" stroke="black" points="164,-56.5 164,-75.5 250,-75.5 250,-56.5 164,-56.5"/>
<text text-anchor="middle" x="207" y="-63.5" font-family="Helvetica,sans-Serif" font-size="10.00">lora_handler.h</text>
</a>
</g>
</g>
<!-- Node1&#45;&gt;Node5 -->
<g id="edge5" class="edge">
<title>Node1&#45;&gt;Node5</title>
<path fill="none" stroke="midnightblue" d="M147.41,-112.32C158.11,-104.18 174.34,-91.84 187.16,-82.09"/>
<polygon fill="midnightblue" stroke="midnightblue" points="189.54,-84.67 195.39,-75.83 185.31,-79.1 189.54,-84.67"/>
</g>
<!-- Node3&#45;&gt;Node2 -->
<g id="edge3" class="edge">
<title>Node3&#45;&gt;Node2</title>
<path fill="none" stroke="midnightblue" d="M77.25,-56.32C87.8,-48.18 103.8,-35.84 116.44,-26.09"/>
<polygon fill="midnightblue" stroke="midnightblue" points="118.77,-28.71 124.55,-19.83 114.49,-23.17 118.77,-28.71"/>
</g>
<!-- Node4 -->
<g id="node4" class="node">
<title>Node4</title>
<g id="a_node4"><a xlink:title=" ">
<polygon fill="white" stroke="#bfbfbf" points="0,-0.5 0,-19.5 86,-19.5 86,-0.5 0,-0.5"/>
<text text-anchor="middle" x="43" y="-7.5" font-family="Helvetica,sans-Serif" font-size="10.00">TinyGPSPlus.h</text>
</a>
</g>
</g>
<!-- Node3&#45;&gt;Node4 -->
<g id="edge4" class="edge">
<title>Node3&#45;&gt;Node4</title>
<path fill="none" stroke="midnightblue" d="M62.2,-56.08C59.09,-48.77 54.58,-38.18 50.71,-29.1"/>
<polygon fill="midnightblue" stroke="midnightblue" points="53.87,-27.58 46.73,-19.75 47.43,-30.32 53.87,-27.58"/>
</g>
<!-- Node5&#45;&gt;Node2 -->
<g id="edge6" class="edge">
<title>Node5&#45;&gt;Node2</title>
<path fill="none" stroke="midnightblue" d="M195.59,-56.32C184.89,-48.18 168.66,-35.84 155.84,-26.09"/>
<polygon fill="midnightblue" stroke="midnightblue" points="157.69,-23.1 147.61,-19.83 153.46,-28.67 157.69,-23.1"/>
</g>
<!-- Node6 -->
<g id="node6" class="node">
<title>Node6</title>
<g id="a_node6"><a xlink:title=" ">
<polygon fill="white" stroke="#bfbfbf" points="186,-0.5 186,-19.5 254,-19.5 254,-0.5 186,-0.5"/>
<text text-anchor="middle" x="220" y="-7.5" font-family="Helvetica,sans-Serif" font-size="10.00">RadioLib.h</text>
</a>
</g>
</g>
<!-- Node5&#45;&gt;Node6 -->
<g id="edge7" class="edge">
<title>Node5&#45;&gt;Node6</title>
<path fill="none" stroke="midnightblue" d="M209.15,-56.08C210.87,-48.93 213.35,-38.64 215.5,-29.69"/>
<polygon fill="midnightblue" stroke="midnightblue" points="218.96,-30.29 217.89,-19.75 212.15,-28.65 218.96,-30.29"/>
</g>
</g>
</svg>
