<?xml version="1.0" encoding="UTF-8" standalone="no"?>
<!DOCTYPE svg PUBLIC "-//W3C//DTD SVG 1.1//EN"
 "http://www.w3.org/Graphics/SVG/1.1/DTD/svg11.dtd">
<!-- Generated by graphviz version 2.43.0 (0)
 -->
<!-- Title: gpsSerial Pages: 1 -->
<svg width="261pt" height="66pt"
 viewBox="0.00 0.00 261.00 66.00" xmlns="http://www.w3.org/2000/svg" xmlns:xlink="http://www.w3.org/1999/xlink">
<g id="graph0" class="graph" transform="scale(1 1) rotate(0) translate(4 62)">
<title>gpsSerial</title>
<polygon fill="white" stroke="transparent" points="-4,4 -4,-62 257,-62 257,4 -4,4"/>
<!-- Node1 -->
<g id="node1" class="node">
<title>Node1</title>
<g id="a_node1"><a xlink:title=" ">
<polygon fill="#bfbfbf" stroke="black" points="191,-19.5 191,-38.5 253,-38.5 253,-19.5 191,-19.5"/>
<text text-anchor="middle" x="222" y="-26.5" font-family="Helvetica,sans-Serif" font-size="10.00">gpsSerial</text>
</a>
</g>
</g>
<!-- Node2 -->
<g id="node2" class="node">
<title>Node2</title>
<g id="a_node2"><a xlink:href="gps__handler_8cpp.html#a5f19e424ee67f76fb7be41041854f024" target="_top" xlink:title="Inicializa SoftwareSerial hacia el receptor GNSS.">
<polygon fill="white" stroke="black" points="83.5,-38.5 83.5,-57.5 151.5,-57.5 151.5,-38.5 83.5,-38.5"/>
<text text-anchor="middle" x="117.5" y="-45.5" font-family="Helvetica,sans-Serif" font-size="10.00">GPS_begin</text>
</a>
</g>
</g>
<!-- Node1&#45;&gt;Node2 -->
<g id="edge1" class="edge">
<title>Node1&#45;&gt;Node2</title>
<path fill="none" stroke="midnightblue" d="M180.67,-36.48C171.07,-38.25 160.94,-40.13 151.71,-41.84"/>
<polygon fill="midnightblue" stroke="midnightblue" points="181.61,-39.86 190.8,-34.6 180.33,-32.98 181.61,-39.86"/>
</g>
<!-- Node4 -->
<g id="node4" class="node">
<title>Node4</title>
<g id="a_node4"><a xlink:href="gps__handler_8cpp.html#a7c9d547d0c359f65fae840093b0b01ef" target="_top" xlink:title="Lee los mensajes recibidos y los pasa al parser NMEA.">
<polygon fill="white" stroke="black" points="80,-0.5 80,-19.5 155,-19.5 155,-0.5 80,-0.5"/>
<text text-anchor="middle" x="117.5" y="-7.5" font-family="Helvetica,sans-Serif" font-size="10.00">GPS_update</text>
</a>
</g>
</g>
<!-- Node1&#45;&gt;Node4 -->
<g id="edge3" class="edge">
<title>Node1&#45;&gt;Node4</title>
<path fill="none" stroke="midnightblue" d="M180.73,-21.54C172.25,-19.96 163.34,-18.31 155.01,-16.77"/>
<polygon fill="midnightblue" stroke="midnightblue" points="180.33,-25.02 190.8,-23.4 181.61,-18.14 180.33,-25.02"/>
</g>
<!-- Node3 -->
<g id="node3" class="node">
<title>Node3</title>
<g id="a_node3"><a xlink:href="main_8cpp.html#a4fc01d736fe50cf5b977f755b675f11d" target="_top" xlink:title=" ">
<polygon fill="white" stroke="black" points="0,-38.5 0,-57.5 44,-57.5 44,-38.5 0,-38.5"/>
<text text-anchor="middle" x="22" y="-45.5" font-family="Helvetica,sans-Serif" font-size="10.00">setup</text>
</a>
</g>
</g>
<!-- Node2&#45;&gt;Node3 -->
<g id="edge2" class="edge">
<title>Node2&#45;&gt;Node3</title>
<path fill="none" stroke="midnightblue" d="M72.98,-48C62.95,-48 52.73,-48 44.17,-48"/>
<polygon fill="midnightblue" stroke="midnightblue" points="73.27,-51.5 83.27,-48 73.27,-44.5 73.27,-51.5"/>
</g>
<!-- Node5 -->
<g id="node5" class="node">
<title>Node5</title>
<g id="a_node5"><a xlink:href="main_8cpp.html#afe461d27b9c48d5921c00d521181f12f" target="_top" xlink:title=" ">
<polygon fill="white" stroke="black" points="3,-0.5 3,-19.5 41,-19.5 41,-0.5 3,-0.5"/>
<text text-anchor="middle" x="22" y="-7.5" font-family="Helvetica,sans-Serif" font-size="10.00">loop</text>
</a>
</g>
</g>
<!-- Node4&#45;&gt;Node5 -->
<g id="edge4" class="edge">
<title>Node4&#45;&gt;Node5</title>
<path fill="none" stroke="midnightblue" d="M69.7,-10C59.51,-10 49.32,-10 41.07,-10"/>
<polygon fill="midnightblue" stroke="midnightblue" points="69.81,-13.5 79.81,-10 69.81,-6.5 69.81,-13.5"/>
</g>
</g>
</svg>
