<?xml version="1.0" encoding="UTF-8" standalone="no"?>
<!DOCTYPE svg PUBLIC "-//W3C//DTD SVG 1.1//EN"
 "http://www.w3.org/Graphics/SVG/1.1/DTD/svg11.dtd">
<!-- Generated by graphviz version 2.43.0 (0)
 -->
<!-- Title: setup Pages: 1 -->
<svg width="314pt" height="104pt"
 viewBox="0.00 0.00 314.00 104.00" xmlns="http://www.w3.org/2000/svg" xmlns:xlink="http://www.w3.org/1999/xlink">
<g id="graph0" class="graph" transform="scale(1 1) rotate(0) translate(4 100)">
<title>setup</title>
<polygon fill="white" stroke="transparent" points="-4,4 -4,-100 310,-100 310,4 -4,4"/>
<!-- Node1 -->
<g id="node1" class="node">
<title>Node1</title>
<g id="a_node1"><a xlink:title=" ">
<polygon fill="#bfbfbf" stroke="black" points="0,-38.5 0,-57.5 44,-57.5 44,-38.5 0,-38.5"/>
<text text-anchor="middle" x="22" y="-45.5" font-family="Helvetica,sans-Serif" font-size="10.00">setup</text>
</a>
</g>
</g>
<!-- Node2 -->
<g id="node2" class="node">
<title>Node2</title>
<g id="a_node2"><a xlink:href="gps__handler_8cpp.html#a5f19e424ee67f76fb7be41041854f024" target="_top" xlink:title="Inicializa SoftwareSerial hacia el receptor GNSS.">
<polygon fill="white" stroke="black" points="92,-76.5 92,-95.5 160,-95.5 160,-76.5 92,-76.5"/>
<text text-anchor="middle" x="126" y="-83.5" font-family="Helvetica,sans-Serif" font-size="10.00">GPS_begin</text>
</a>
</g>
</g>
<!-- Node1&#45;&gt;Node2 -->
<g id="edge1" class="edge">
<title>Node1&#45;&gt;Node2</title>
<path fill="none" stroke="midnightblue" d="M44.13,-55.87C57.25,-60.76 74.43,-67.16 89.59,-72.81"/>
<polygon fill="midnightblue" stroke="midnightblue" points="88.6,-76.17 99.19,-76.38 91.04,-69.61 88.6,-76.17"/>
</g>
<!-- Node4 -->
<g id="node4" class="node">
<title>Node4</title>
<g id="a_node4"><a xlink:href="lora__handler_8cpp.html#a0269a771b42dac59079cf8c7a605e5e2" target="_top" xlink:title="Inicializa bus SPI0, pines de la radio y configuración LoRa.">
<polygon fill="white" stroke="black" points="88.5,-38.5 88.5,-57.5 163.5,-57.5 163.5,-38.5 88.5,-38.5"/>
<text text-anchor="middle" x="126" y="-45.5" font-family="Helvetica,sans-Serif" font-size="10.00">LORA_begin</text>
</a>
</g>
</g>
<!-- Node1&#45;&gt;Node4 -->
<g id="edge3" class="edge">
<title>Node1&#45;&gt;Node4</title>
<path fill="none" stroke="midnightblue" d="M44.13,-48C53.97,-48 66.1,-48 77.94,-48"/>
<polygon fill="midnightblue" stroke="midnightblue" points="78.21,-51.5 88.21,-48 78.21,-44.5 78.21,-51.5"/>
</g>
<!-- Node6 -->
<g id="node6" class="node">
<title>Node6</title>
<g id="a_node6"><a xlink:href="lora__handler_8cpp.html#a7bcdccd402c2be62620e9f11563aaab4" target="_top" xlink:title="Último estado devuelto por RadioLib (RADIOLIB_ERR_xxx).">
<polygon fill="white" stroke="black" points="80,-0.5 80,-19.5 172,-19.5 172,-0.5 80,-0.5"/>
<text text-anchor="middle" x="126" y="-7.5" font-family="Helvetica,sans-Serif" font-size="10.00">LORA_lastState</text>
</a>
</g>
</g>
<!-- Node1&#45;&gt;Node6 -->
<g id="edge5" class="edge">
<title>Node1&#45;&gt;Node6</title>
<path fill="none" stroke="midnightblue" d="M44.13,-40.13C57.25,-35.24 74.43,-28.84 89.59,-23.19"/>
<polygon fill="midnightblue" stroke="midnightblue" points="91.04,-26.39 99.19,-19.62 88.6,-19.83 91.04,-26.39"/>
</g>
<!-- Node3 -->
<g id="node3" class="node">
<title>Node3</title>
<g id="a_node3"><a xlink:href="gps__handler_8cpp.html#ad0b9cfa4d46dc061703aa2a40d4ef921" target="_top" xlink:title=" ">
<polygon fill="white" stroke="black" points="226,-76.5 226,-95.5 288,-95.5 288,-76.5 226,-76.5"/>
<text text-anchor="middle" x="257" y="-83.5" font-family="Helvetica,sans-Serif" font-size="10.00">gpsSerial</text>
</a>
</g>
</g>
<!-- Node2&#45;&gt;Node3 -->
<g id="edge2" class="edge">
<title>Node2&#45;&gt;Node3</title>
<path fill="none" stroke="midnightblue" d="M160.22,-86C177.19,-86 197.98,-86 215.85,-86"/>
<polygon fill="midnightblue" stroke="midnightblue" points="215.98,-89.5 225.98,-86 215.98,-82.5 215.98,-89.5"/>
</g>
<!-- Node5 -->
<g id="node5" class="node">
<title>Node5</title>
<g id="a_node5"><a xlink:href="lora__handler_8cpp.html#a3784109952cbb7dcbde5e7600056356f" target="_top" xlink:title="Callback de RadioLib cuando termina la transmisión.">
<polygon fill="white" stroke="black" points="208,-38.5 208,-57.5 306,-57.5 306,-38.5 208,-38.5"/>
<text text-anchor="middle" x="257" y="-45.5" font-family="Helvetica,sans-Serif" font-size="10.00">onPacketSentISR</text>
</a>
</g>
</g>
<!-- Node4&#45;&gt;Node5 -->
<g id="edge4" class="edge">
<title>Node4&#45;&gt;Node5</title>
<path fill="none" stroke="midnightblue" d="M163.62,-48C174.22,-48 186.07,-48 197.64,-48"/>
<polygon fill="midnightblue" stroke="midnightblue" points="197.71,-51.5 207.71,-48 197.71,-44.5 197.71,-51.5"/>
</g>
</g>
</svg>
