<?xml version="1.0" encoding="UTF-8" standalone="no"?>
<!DOCTYPE svg PUBLIC "-//W3C//DTD SVG 1.1//EN"
 "http://www.w3.org/Graphics/SVG/1.1/DTD/svg11.dtd">
<!-- Generated by graphviz version 2.43.0 (0)
 -->
<!-- Title: loop Pages: 1 -->
<svg width="315pt" height="332pt"
 viewBox="0.00 0.00 315.00 332.00" xmlns="http://www.w3.org/2000/svg" xmlns:xlink="http://www.w3.org/1999/xlink">
<g id="graph0" class="graph" transform="scale(1 1) rotate(0) translate(4 328)">
<title>loop</title>
<polygon fill="white" stroke="transparent" points="-4,4 -4,-328 311,-328 311,4 -4,4"/>
<!-- Node1 -->
<g id="node1" class="node">
<title>Node1</title>
<g id="a_node1"><a xlink:title=" ">
<polygon fill="#bfbfbf" stroke="black" points="0,-152.5 0,-171.5 38,-171.5 38,-152.5 0,-152.5"/>
<text text-anchor="middle" x="19" y="-159.5" font-family="Helvetica,sans-Serif" font-size="10.00">loop</text>
</a>
</g>
</g>
<!-- Node2 -->
<g id="node2" class="node">
<title>Node2</title>
<g id="a_node2"><a xlink:href="gps__handler_8cpp.html#a61552eb9fffd44a6bac6466aa469aa40" target="_top" xlink:title="Genera el payload de 13 B: [fix|hhmmss|lat*1e5|lon*1e5] (LE).">
<polygon fill="white" stroke="black" points="74,-304.5 74,-323.5 209,-323.5 209,-304.5 74,-304.5"/>
<text text-anchor="middle" x="141.5" y="-311.5" font-family="Helvetica,sans-Serif" font-size="10.00">GPS_buildBinaryPayload</text>
</a>
</g>
</g>
<!-- Node1&#45;&gt;Node2 -->
<g id="edge1" class="edge">
<title>Node1&#45;&gt;Node2</title>
<path fill="none" stroke="midnightblue" d="M21.05,-171.67C24.23,-196.11 35.99,-260.87 74,-295 75.74,-296.56 77.6,-298 79.56,-299.32"/>
<polygon fill="midnightblue" stroke="midnightblue" points="78.19,-302.56 88.63,-304.38 81.6,-296.45 78.19,-302.56"/>
</g>
<!-- Node3 -->
<g id="node3" class="node">
<title>Node3</title>
<g id="a_node3"><a xlink:href="gps__handler_8cpp.html#a523ec4c7c0998d6194def804e4f03175" target="_top" xlink:title="Extrae el mensaje actual; si los datos no son válidos, devuelve valid=false.">
<polygon fill="white" stroke="black" points="103.5,-266.5 103.5,-285.5 179.5,-285.5 179.5,-266.5 103.5,-266.5"/>
<text text-anchor="middle" x="141.5" y="-273.5" font-family="Helvetica,sans-Serif" font-size="10.00">GPS_getInfo</text>
</a>
</g>
</g>
<!-- Node1&#45;&gt;Node3 -->
<g id="edge2" class="edge">
<title>Node1&#45;&gt;Node3</title>
<path fill="none" stroke="midnightblue" d="M22.78,-171.72C28.81,-190.99 44.91,-234.14 74,-257 79.78,-261.54 86.59,-264.99 93.62,-267.62"/>
<polygon fill="midnightblue" stroke="midnightblue" points="92.66,-270.99 103.25,-270.72 94.8,-264.33 92.66,-270.99"/>
</g>
<!-- Node4 -->
<g id="node4" class="node">
<title>Node4</title>
<g id="a_node4"><a xlink:href="gps__handler_8cpp.html#acd2c4c8a13c434800efe2a59b62c40aa" target="_top" xlink:title="Comprobación mínima de validez (posición + hora).">
<polygon fill="white" stroke="black" points="105,-228.5 105,-247.5 178,-247.5 178,-228.5 105,-228.5"/>
<text text-anchor="middle" x="141.5" y="-235.5" font-family="Helvetica,sans-Serif" font-size="10.00">GPS_hasFix</text>
</a>
</g>
</g>
<!-- Node1&#45;&gt;Node4 -->
<g id="edge3" class="edge">
<title>Node1&#45;&gt;Node4</title>
<path fill="none" stroke="midnightblue" d="M26.52,-171.57C35.66,-184.28 53.49,-206.56 74,-219 80.42,-222.9 87.68,-226.02 94.97,-228.52"/>
<polygon fill="midnightblue" stroke="midnightblue" points="94.29,-231.97 104.88,-231.56 96.34,-225.28 94.29,-231.97"/>
</g>
<!-- Node5 -->
<g id="node5" class="node">
<title>Node5</title>
<g id="a_node5"><a xlink:href="gps__handler_8cpp.html#a74d00bb78d95d1bb57d14d20a5abffa0" target="_top" xlink:title="Decodifica 13 B a GpsInfo; exige fix_flag==1.">
<polygon fill="white" stroke="black" points="88,-190.5 88,-209.5 195,-209.5 195,-190.5 88,-190.5"/>
<text text-anchor="middle" x="141.5" y="-197.5" font-family="Helvetica,sans-Serif" font-size="10.00">GPS_parsePayload</text>
</a>
</g>
</g>
<!-- Node1&#45;&gt;Node5 -->
<g id="edge4" class="edge">
<title>Node1&#45;&gt;Node5</title>
<path fill="none" stroke="midnightblue" d="M38.4,-168.78C48.8,-172.54 62.07,-177.2 74,-181 81,-183.23 88.45,-185.48 95.74,-187.61"/>
<polygon fill="midnightblue" stroke="midnightblue" points="94.95,-191.02 105.52,-190.43 96.89,-184.3 94.95,-191.02"/>
</g>
<!-- Node6 -->
<g id="node6" class="node">
<title>Node6</title>
<g id="a_node6"><a xlink:href="gps__handler_8cpp.html#a7c9d547d0c359f65fae840093b0b01ef" target="_top" xlink:title="Lee los mensajes recibidos y los pasa al parser NMEA.">
<polygon fill="white" stroke="black" points="104,-152.5 104,-171.5 179,-171.5 179,-152.5 104,-152.5"/>
<text text-anchor="middle" x="141.5" y="-159.5" font-family="Helvetica,sans-Serif" font-size="10.00">GPS_update</text>
</a>
</g>
</g>
<!-- Node1&#45;&gt;Node6 -->
<g id="edge5" class="edge">
<title>Node1&#45;&gt;Node6</title>
<path fill="none" stroke="midnightblue" d="M38.04,-162C52.73,-162 74.15,-162 93.62,-162"/>
<polygon fill="midnightblue" stroke="midnightblue" points="93.87,-165.5 103.87,-162 93.87,-158.5 93.87,-165.5"/>
</g>
<!-- Node8 -->
<g id="node8" class="node">
<title>Node8</title>
<g id="a_node8"><a xlink:href="lora__handler_8cpp.html#a296f8e93b6cdcbd18fa8aff5bfe61b2c" target="_top" xlink:title="Finaliza transmisión (bloqueante corta) y marca TX hecho.">
<polygon fill="white" stroke="black" points="98.5,-114.5 98.5,-133.5 184.5,-133.5 184.5,-114.5 98.5,-114.5"/>
<text text-anchor="middle" x="141.5" y="-121.5" font-family="Helvetica,sans-Serif" font-size="10.00">LORA_finishTx</text>
</a>
</g>
</g>
<!-- Node1&#45;&gt;Node8 -->
<g id="edge7" class="edge">
<title>Node1&#45;&gt;Node8</title>
<path fill="none" stroke="midnightblue" d="M38.4,-155.22C48.8,-151.46 62.07,-146.8 74,-143 81,-140.77 88.45,-138.52 95.74,-136.39"/>
<polygon fill="midnightblue" stroke="midnightblue" points="96.89,-139.7 105.52,-133.57 94.95,-132.98 96.89,-139.7"/>
</g>
<!-- Node9 -->
<g id="node9" class="node">
<title>Node9</title>
<g id="a_node9"><a xlink:href="lora__handler_8cpp.html#a257aeac6b0883f767ab2ce3d46830ca6" target="_top" xlink:title="Indica si la ISR de fin de transmisión ya se disparó.">
<polygon fill="white" stroke="black" points="94.5,-76.5 94.5,-95.5 188.5,-95.5 188.5,-76.5 94.5,-76.5"/>
<text text-anchor="middle" x="141.5" y="-83.5" font-family="Helvetica,sans-Serif" font-size="10.00">LORA_isTxDone</text>
</a>
</g>
</g>
<!-- Node1&#45;&gt;Node9 -->
<g id="edge8" class="edge">
<title>Node1&#45;&gt;Node9</title>
<path fill="none" stroke="midnightblue" d="M26.52,-152.43C35.66,-139.72 53.49,-117.44 74,-105 77.58,-102.83 81.42,-100.89 85.38,-99.18"/>
<polygon fill="midnightblue" stroke="midnightblue" points="86.71,-102.41 94.78,-95.54 84.19,-95.88 86.71,-102.41"/>
</g>
<!-- Node10 -->
<g id="node10" class="node">
<title>Node10</title>
<g id="a_node10"><a xlink:href="lora__handler_8cpp.html#a7bcdccd402c2be62620e9f11563aaab4" target="_top" xlink:title="Último estado devuelto por RadioLib (RADIOLIB_ERR_xxx).">
<polygon fill="white" stroke="black" points="95.5,-38.5 95.5,-57.5 187.5,-57.5 187.5,-38.5 95.5,-38.5"/>
<text text-anchor="middle" x="141.5" y="-45.5" font-family="Helvetica,sans-Serif" font-size="10.00">LORA_lastState</text>
</a>
</g>
</g>
<!-- Node1&#45;&gt;Node10 -->
<g id="edge9" class="edge">
<title>Node1&#45;&gt;Node10</title>
<path fill="none" stroke="midnightblue" d="M22.78,-152.28C28.81,-133.01 44.91,-89.86 74,-67 77.6,-64.17 81.61,-61.76 85.82,-59.71"/>
<polygon fill="midnightblue" stroke="midnightblue" points="87.39,-62.85 95.28,-55.77 84.7,-56.38 87.39,-62.85"/>
</g>
<!-- Node11 -->
<g id="node11" class="node">
<title>Node11</title>
<g id="a_node11"><a xlink:href="lora__handler_8cpp.html#a8dad716f40a568b5c7223cacf6de206f" target="_top" xlink:title="Lanza transmisión asíncrona (non&#45;blocking).">
<polygon fill="white" stroke="black" points="100,-0.5 100,-19.5 183,-19.5 183,-0.5 100,-0.5"/>
<text text-anchor="middle" x="141.5" y="-7.5" font-family="Helvetica,sans-Serif" font-size="10.00">LORA_startTx</text>
</a>
</g>
</g>
<!-- Node1&#45;&gt;Node11 -->
<g id="edge10" class="edge">
<title>Node1&#45;&gt;Node11</title>
<path fill="none" stroke="midnightblue" d="M21.05,-152.33C24.23,-127.89 35.99,-63.13 74,-29 78.75,-24.74 84.39,-21.42 90.36,-18.85"/>
<polygon fill="midnightblue" stroke="midnightblue" points="91.7,-22.09 99.9,-15.39 89.31,-15.51 91.7,-22.09"/>
</g>
<!-- Node7 -->
<g id="node7" class="node">
<title>Node7</title>
<g id="a_node7"><a xlink:href="gps__handler_8cpp.html#ad0b9cfa4d46dc061703aa2a40d4ef921" target="_top" xlink:title=" ">
<polygon fill="white" stroke="black" points="245,-152.5 245,-171.5 307,-171.5 307,-152.5 245,-152.5"/>
<text text-anchor="middle" x="276" y="-159.5" font-family="Helvetica,sans-Serif" font-size="10.00">gpsSerial</text>
</a>
</g>
</g>
<!-- Node6&#45;&gt;Node7 -->
<g id="edge6" class="edge">
<title>Node6&#45;&gt;Node7</title>
<path fill="none" stroke="midnightblue" d="M179.06,-162C196.35,-162 217.04,-162 234.77,-162"/>
<polygon fill="midnightblue" stroke="midnightblue" points="234.82,-165.5 244.82,-162 234.82,-158.5 234.82,-165.5"/>
</g>
</g>
</svg>
