<?xml version="1.0" encoding="UTF-8" standalone="no"?>
<!DOCTYPE svg PUBLIC "-//W3C//DTD SVG 1.1//EN"
 "http://www.w3.org/Graphics/SVG/1.1/DTD/svg11.dtd">
<!-- Generated by graphviz version 2.43.0 (0)
 -->
<!-- Title: showLCDMessage Pages: 1 -->
<svg width="465pt" height="180pt"
 viewBox="0.00 0.00 465.00 180.00" xmlns="http://www.w3.org/2000/svg" xmlns:xlink="http://www.w3.org/1999/xlink">
<g id="graph0" class="graph" transform="scale(1 1) rotate(0) translate(4 176)">
<title>showLCDMessage</title>
<polygon fill="white" stroke="transparent" points="-4,4 -4,-176 461,-176 461,4 -4,4"/>
<!-- Node1 -->
<g id="node1" class="node">
<title>Node1</title>
<g id="a_node1"><a xlink:title="Muestra un mensaje de texto en la pantalla LCD.">
<polygon fill="#bfbfbf" stroke="black" points="352,-76.5 352,-95.5 457,-95.5 457,-76.5 352,-76.5"/>
<text text-anchor="middle" x="404.5" y="-83.5" font-family="Helvetica,sans-Serif" font-size="10.00">showLCDMessage</text>
</a>
</g>
</g>
<!-- Node2 -->
<g id="node2" class="node">
<title>Node2</title>
<g id="a_node2"><a xlink:href="wifi__manager_8cpp.html#a7366b308d83e321ec68741802ec46934" target="_top" xlink:title="POST /submit: guarda credenciales, redirige y programa reinicio.">
<polygon fill="white" stroke="black" points="80,-152.5 80,-171.5 189,-171.5 189,-152.5 80,-152.5"/>
<text text-anchor="middle" x="134.5" y="-159.5" font-family="Helvetica,sans-Serif" font-size="10.00">handleFormSubmit</text>
</a>
</g>
</g>
<!-- Node1&#45;&gt;Node2 -->
<g id="edge1" class="edge">
<title>Node1&#45;&gt;Node2</title>
<path fill="none" stroke="midnightblue" d="M382.41,-101.87C365.39,-113.82 340.37,-129.54 316,-138 274.94,-152.26 225.91,-158.12 189.33,-160.5"/>
<polygon fill="midnightblue" stroke="midnightblue" points="384.91,-104.38 390.98,-95.69 380.82,-98.7 384.91,-104.38"/>
</g>
<!-- Node3 -->
<g id="node3" class="node">
<title>Node3</title>
<g id="a_node3"><a xlink:href="main_8cpp.html#a4fc01d736fe50cf5b977f755b675f11d" target="_top" xlink:title=" ">
<polygon fill="white" stroke="black" points="0,-114.5 0,-133.5 44,-133.5 44,-114.5 0,-114.5"/>
<text text-anchor="middle" x="22" y="-121.5" font-family="Helvetica,sans-Serif" font-size="10.00">setup</text>
</a>
</g>
</g>
<!-- Node1&#45;&gt;Node3 -->
<g id="edge5" class="edge">
<title>Node1&#45;&gt;Node3</title>
<path fill="none" stroke="midnightblue" d="M341.77,-92.17C254.66,-100.86 100.03,-116.31 44.01,-121.9"/>
<polygon fill="midnightblue" stroke="midnightblue" points="342.19,-95.64 351.79,-91.16 341.49,-88.68 342.19,-95.64"/>
</g>
<!-- Node4 -->
<g id="node4" class="node">
<title>Node4</title>
<g id="a_node4"><a xlink:href="wifi__manager_8cpp.html#a10827b8bfa7fec1b64a733df6e192f74" target="_top" xlink:title="Conexión inicial: intenta STA; si falla, levanta AP y guía por LCD al usuario.">
<polygon fill="white" stroke="black" points="80.5,-57.5 80.5,-76.5 188.5,-76.5 188.5,-57.5 80.5,-57.5"/>
<text text-anchor="middle" x="134.5" y="-64.5" font-family="Helvetica,sans-Serif" font-size="10.00">initWiFiConnection</text>
</a>
</g>
</g>
<!-- Node1&#45;&gt;Node4 -->
<g id="edge3" class="edge">
<title>Node1&#45;&gt;Node4</title>
<path fill="none" stroke="midnightblue" d="M341.63,-81.61C295.41,-78.34 232.88,-73.9 188.85,-70.78"/>
<polygon fill="midnightblue" stroke="midnightblue" points="341.6,-85.12 351.83,-82.34 342.1,-78.14 341.6,-85.12"/>
</g>
<!-- Node5 -->
<g id="node5" class="node">
<title>Node5</title>
<g id="a_node5"><a xlink:href="wifi__manager_8cpp.html#aa667b9ec9c4343dc605b8a5f92dbd794" target="_top" xlink:title="Levanta AP con SSID/clave fijos (prototipo).">
<polygon fill="white" stroke="black" points="234,-38.5 234,-57.5 307,-57.5 307,-38.5 234,-38.5"/>
<text text-anchor="middle" x="270.5" y="-45.5" font-family="Helvetica,sans-Serif" font-size="10.00">startWiFiAP</text>
</a>
</g>
</g>
<!-- Node1&#45;&gt;Node5 -->
<g id="edge6" class="edge">
<title>Node1&#45;&gt;Node5</title>
<path fill="none" stroke="midnightblue" d="M360.46,-73.61C342.38,-68.41 321.68,-62.45 304.8,-57.59"/>
<polygon fill="midnightblue" stroke="midnightblue" points="359.61,-77.01 370.19,-76.41 361.55,-70.28 359.61,-77.01"/>
</g>
<!-- Node6 -->
<g id="node6" class="node">
<title>Node6</title>
<g id="a_node6"><a xlink:href="wifi__manager_8cpp.html#ac7be2f0bbb099f8cdd59d03384a7445b" target="_top" xlink:title="Intento de conexión STA con timeout.">
<polygon fill="white" stroke="black" points="225,-0.5 225,-19.5 316,-19.5 316,-0.5 225,-0.5"/>
<text text-anchor="middle" x="270.5" y="-7.5" font-family="Helvetica,sans-Serif" font-size="10.00">tryConnectWiFi</text>
</a>
</g>
</g>
<!-- Node1&#45;&gt;Node6 -->
<g id="edge8" class="edge">
<title>Node1&#45;&gt;Node6</title>
<path fill="none" stroke="midnightblue" d="M382.02,-70.49C364.69,-58.36 339.42,-41.51 316,-29 309.63,-25.6 302.51,-22.34 295.88,-19.51"/>
<polygon fill="midnightblue" stroke="midnightblue" points="380.12,-73.44 390.3,-76.36 384.16,-67.73 380.12,-73.44"/>
</g>
<!-- Node2&#45;&gt;Node3 -->
<g id="edge2" class="edge">
<title>Node2&#45;&gt;Node3</title>
<path fill="none" stroke="midnightblue" d="M95.83,-149.04C78.61,-143.12 58.84,-136.32 44.25,-131.31"/>
<polygon fill="midnightblue" stroke="midnightblue" points="95.02,-152.47 105.62,-152.41 97.3,-145.85 95.02,-152.47"/>
</g>
<!-- Node4&#45;&gt;Node3 -->
<g id="edge4" class="edge">
<title>Node4&#45;&gt;Node3</title>
<path fill="none" stroke="midnightblue" d="M105.76,-81.31C85.65,-91.68 59.02,-105.42 41.47,-114.47"/>
<polygon fill="midnightblue" stroke="midnightblue" points="107.47,-84.36 114.76,-76.67 104.26,-78.14 107.47,-84.36"/>
</g>
<!-- Node5&#45;&gt;Node4 -->
<g id="edge7" class="edge">
<title>Node5&#45;&gt;Node4</title>
<path fill="none" stroke="midnightblue" d="M223.84,-54.47C212.52,-56.08 200.29,-57.81 188.65,-59.46"/>
<polygon fill="midnightblue" stroke="midnightblue" points="224.53,-57.91 233.94,-53.04 223.55,-50.98 224.53,-57.91"/>
</g>
<!-- Node6&#45;&gt;Node4 -->
<g id="edge9" class="edge">
<title>Node6&#45;&gt;Node4</title>
<path fill="none" stroke="midnightblue" d="M237.81,-23.48C213.27,-33.92 179.86,-48.13 158,-57.43"/>
<polygon fill="midnightblue" stroke="midnightblue" points="239.24,-26.68 247.07,-19.54 236.5,-20.23 239.24,-26.68"/>
</g>
</g>
</svg>
