<?xml version="1.0" encoding="UTF-8" standalone="no"?>
<!DOCTYPE svg PUBLIC "-//W3C//DTD SVG 1.1//EN"
 "http://www.w3.org/Graphics/SVG/1.1/DTD/svg11.dtd">
<!-- Generated by graphviz version 2.43.0 (0)
 -->
<!-- Title: initWiFiConnection Pages: 1 -->
<svg width="384pt" height="142pt"
 viewBox="0.00 0.00 384.00 142.00" xmlns="http://www.w3.org/2000/svg" xmlns:xlink="http://www.w3.org/1999/xlink">
<g id="graph0" class="graph" transform="scale(1 1) rotate(0) translate(4 138)">
<title>initWiFiConnection</title>
<polygon fill="white" stroke="transparent" points="-4,4 -4,-138 380,-138 380,4 -4,4"/>
<!-- Node1 -->
<g id="node1" class="node">
<title>Node1</title>
<g id="a_node1"><a xlink:title="Conexión inicial: intenta STA; si falla, levanta AP y guía por LCD al usuario.">
<polygon fill="#bfbfbf" stroke="black" points="0,-57.5 0,-76.5 108,-76.5 108,-57.5 0,-57.5"/>
<text text-anchor="middle" x="54" y="-64.5" font-family="Helvetica,sans-Serif" font-size="10.00">initWiFiConnection</text>
</a>
</g>
</g>
<!-- Node2 -->
<g id="node2" class="node">
<title>Node2</title>
<g id="a_node2"><a xlink:href="wifi__manager_8cpp.html#a95148182fea291cfde47143f6f2a1514" target="_top" xlink:title="Carga SSID y password de CONFIG_FILE.">
<polygon fill="white" stroke="black" points="149,-114.5 149,-133.5 230,-133.5 230,-114.5 149,-114.5"/>
<text text-anchor="middle" x="189.5" y="-121.5" font-family="Helvetica,sans-Serif" font-size="10.00">loadWiFiConf</text>
</a>
</g>
</g>
<!-- Node1&#45;&gt;Node2 -->
<g id="edge1" class="edge">
<title>Node1&#45;&gt;Node2</title>
<path fill="none" stroke="midnightblue" d="M77.34,-76.54C99.1,-85.83 132.37,-100.04 156.85,-110.49"/>
<polygon fill="midnightblue" stroke="midnightblue" points="155.51,-113.72 166.08,-114.43 158.26,-107.28 155.51,-113.72"/>
</g>
<!-- Node3 -->
<g id="node3" class="node">
<title>Node3</title>
<g id="a_node3"><a xlink:href="lcd__utils_8cpp.html#a28d0b9d595f60ae4ca04a6a9d7e11ef5" target="_top" xlink:title="Muestra un mensaje en la pantalla LCD (máx. 2 líneas).">
<polygon fill="white" stroke="black" points="271,-38.5 271,-57.5 376,-57.5 376,-38.5 271,-38.5"/>
<text text-anchor="middle" x="323.5" y="-45.5" font-family="Helvetica,sans-Serif" font-size="10.00">showLCDMessage</text>
</a>
</g>
</g>
<!-- Node1&#45;&gt;Node3 -->
<g id="edge2" class="edge">
<title>Node1&#45;&gt;Node3</title>
<path fill="none" stroke="midnightblue" d="M108.32,-69.98C144.23,-71.25 192.59,-71.55 235,-67 248.79,-65.52 263.61,-62.76 277.05,-59.8"/>
<polygon fill="midnightblue" stroke="midnightblue" points="278.06,-63.16 287.02,-57.51 276.49,-56.33 278.06,-63.16"/>
</g>
<!-- Node4 -->
<g id="node4" class="node">
<title>Node4</title>
<g id="a_node4"><a xlink:href="wifi__manager_8cpp.html#aa667b9ec9c4343dc605b8a5f92dbd794" target="_top" xlink:title="Levanta AP con SSID/clave fijos (prototipo).">
<polygon fill="white" stroke="black" points="153,-38.5 153,-57.5 226,-57.5 226,-38.5 153,-38.5"/>
<text text-anchor="middle" x="189.5" y="-45.5" font-family="Helvetica,sans-Serif" font-size="10.00">startWiFiAP</text>
</a>
</g>
</g>
<!-- Node1&#45;&gt;Node4 -->
<g id="edge3" class="edge">
<title>Node1&#45;&gt;Node4</title>
<path fill="none" stroke="midnightblue" d="M108.15,-59.44C119.61,-57.8 131.64,-56.09 142.8,-54.5"/>
<polygon fill="midnightblue" stroke="midnightblue" points="143.35,-57.96 152.75,-53.09 142.36,-51.03 143.35,-57.96"/>
</g>
<!-- Node5 -->
<g id="node5" class="node">
<title>Node5</title>
<g id="a_node5"><a xlink:href="wifi__manager_8cpp.html#ac7be2f0bbb099f8cdd59d03384a7445b" target="_top" xlink:title="Intento de conexión STA con timeout.">
<polygon fill="white" stroke="black" points="144,-0.5 144,-19.5 235,-19.5 235,-0.5 144,-0.5"/>
<text text-anchor="middle" x="189.5" y="-7.5" font-family="Helvetica,sans-Serif" font-size="10.00">tryConnectWiFi</text>
</a>
</g>
</g>
<!-- Node1&#45;&gt;Node5 -->
<g id="edge5" class="edge">
<title>Node1&#45;&gt;Node5</title>
<path fill="none" stroke="midnightblue" d="M77.34,-57.46C99.1,-48.17 132.37,-33.96 156.85,-23.51"/>
<polygon fill="midnightblue" stroke="midnightblue" points="158.26,-26.72 166.08,-19.57 155.51,-20.28 158.26,-26.72"/>
</g>
<!-- Node4&#45;&gt;Node3 -->
<g id="edge4" class="edge">
<title>Node4&#45;&gt;Node3</title>
<path fill="none" stroke="midnightblue" d="M226.22,-48C236.85,-48 248.82,-48 260.61,-48"/>
<polygon fill="midnightblue" stroke="midnightblue" points="260.89,-51.5 270.89,-48 260.89,-44.5 260.89,-51.5"/>
</g>
<!-- Node5&#45;&gt;Node3 -->
<g id="edge6" class="edge">
<title>Node5&#45;&gt;Node3</title>
<path fill="none" stroke="midnightblue" d="M223.81,-19.59C240.69,-24.45 261.39,-30.41 279.47,-35.61"/>
<polygon fill="midnightblue" stroke="midnightblue" points="278.62,-39.01 289.2,-38.41 280.56,-32.28 278.62,-39.01"/>
</g>
</g>
</svg>
