<?xml version="1.0" encoding="UTF-8" standalone="no"?>
<!DOCTYPE svg PUBLIC "-//W3C//DTD SVG 1.1//EN"
 "http://www.w3.org/Graphics/SVG/1.1/DTD/svg11.dtd">
<!-- Generated by graphviz version 2.43.0 (0)
 -->
<!-- Title: include/wifi_manager.h Pages: 1 -->
<svg width="224pt" height="84pt"
 viewBox="0.00 0.00 224.00 84.00" xmlns="http://www.w3.org/2000/svg" xmlns:xlink="http://www.w3.org/1999/xlink">
<g id="graph0" class="graph" transform="scale(1 1) rotate(0) translate(4 80)">
<title>include/wifi_manager.h</title>
<polygon fill="white" stroke="transparent" points="-4,4 -4,-80 220,-80 220,4 -4,4"/>
<!-- Node1 -->
<g id="node1" class="node">
<title>Node1</title>
<g id="a_node1"><a xlink:title="Declaraciones de funciones para la gestión WiFi y almacenamiento de credenciales.">
<polygon fill="#bfbfbf" stroke="black" points="33,-56.5 33,-75.5 162,-75.5 162,-56.5 33,-56.5"/>
<text text-anchor="middle" x="97.5" y="-63.5" font-family="Helvetica,sans-Serif" font-size="10.00">include/wifi_manager.h</text>
</a>
</g>
</g>
<!-- Node2 -->
<g id="node2" class="node">
<title>Node2</title>
<g id="a_node2"><a xlink:href="main_8cpp.html" target="_top" xlink:title=" ">
<polygon fill="white" stroke="black" points="0,-0.5 0,-19.5 79,-19.5 79,-0.5 0,-0.5"/>
<text text-anchor="middle" x="39.5" y="-7.5" font-family="Helvetica,sans-Serif" font-size="10.00">src/main.cpp</text>
</a>
</g>
</g>
<!-- Node1&#45;&gt;Node2 -->
<g id="edge1" class="edge">
<title>Node1&#45;&gt;Node2</title>
<path fill="none" stroke="midnightblue" d="M80.59,-49.25C70.3,-39.67 57.53,-27.79 48.99,-19.83"/>
<polygon fill="midnightblue" stroke="midnightblue" points="78.48,-52.07 88.18,-56.32 83.25,-46.95 78.48,-52.07"/>
</g>
<!-- Node3 -->
<g id="node3" class="node">
<title>Node3</title>
<g id="a_node3"><a xlink:href="wifi__manager_8cpp.html" target="_top" xlink:title="Implementación de la gestión de conexión WiFi y configuración de red.">
<polygon fill="white" stroke="black" points="97,-0.5 97,-19.5 216,-19.5 216,-0.5 97,-0.5"/>
<text text-anchor="middle" x="156.5" y="-7.5" font-family="Helvetica,sans-Serif" font-size="10.00">src/wifi_manager.cpp</text>
</a>
</g>
</g>
<!-- Node1&#45;&gt;Node3 -->
<g id="edge2" class="edge">
<title>Node1&#45;&gt;Node3</title>
<path fill="none" stroke="midnightblue" d="M114.39,-49.54C124.91,-39.91 138.07,-27.87 146.85,-19.83"/>
<polygon fill="midnightblue" stroke="midnightblue" points="111.99,-46.99 106.98,-56.32 116.72,-52.15 111.99,-46.99"/>
</g>
</g>
</svg>
