<?xml version="1.0" encoding="UTF-8" standalone="no"?>
<!DOCTYPE svg PUBLIC "-//W3C//DTD SVG 1.1//EN"
 "http://www.w3.org/Graphics/SVG/1.1/DTD/svg11.dtd">
<!-- Generated by graphviz version 2.43.0 (0)
 -->
<!-- Title: src/gps_handler.cpp Pages: 1 -->
<svg width="382pt" height="140pt"
 viewBox="0.00 0.00 382.00 140.00" xmlns="http://www.w3.org/2000/svg" xmlns:xlink="http://www.w3.org/1999/xlink">
<g id="graph0" class="graph" transform="scale(1 1) rotate(0) translate(4 136)">
<title>src/gps_handler.cpp</title>
<polygon fill="white" stroke="transparent" points="-4,4 -4,-136 378,-136 378,4 -4,4"/>
<!-- Node1 -->
<g id="node1" class="node">
<title>Node1</title>
<g id="a_node1"><a xlink:title="Implementación de las funciones de lectura y empaquetado de datos GNSS.">
<polygon fill="#bfbfbf" stroke="black" points="175,-112.5 175,-131.5 288,-131.5 288,-112.5 175,-112.5"/>
<text text-anchor="middle" x="231.5" y="-119.5" font-family="Helvetica,sans-Serif" font-size="10.00">src/gps_handler.cpp</text>
</a>
</g>
</g>
<!-- Node2 -->
<g id="node2" class="node">
<title>Node2</title>
<g id="a_node2"><a xlink:href="gps__handler_8h.html" target="_top" xlink:title="Declaraciones del módulo GNSS (estructura GpsInfo y funciones públicas).">
<polygon fill="white" stroke="black" points="35.5,-56.5 35.5,-75.5 119.5,-75.5 119.5,-56.5 35.5,-56.5"/>
<text text-anchor="middle" x="77.5" y="-63.5" font-family="Helvetica,sans-Serif" font-size="10.00">gps_handler.h</text>
</a>
</g>
</g>
<!-- Node1&#45;&gt;Node2 -->
<g id="edge1" class="edge">
<title>Node1&#45;&gt;Node2</title>
<path fill="none" stroke="midnightblue" d="M207.1,-112.44C181.3,-103.4 140.42,-89.06 111.48,-78.92"/>
<polygon fill="midnightblue" stroke="midnightblue" points="112.38,-75.52 101.79,-75.52 110.07,-82.13 112.38,-75.52"/>
</g>
<!-- Node5 -->
<g id="node5" class="node">
<title>Node5</title>
<g id="a_node5"><a xlink:title=" ">
<polygon fill="white" stroke="#bfbfbf" points="137.5,-56.5 137.5,-75.5 233.5,-75.5 233.5,-56.5 137.5,-56.5"/>
<text text-anchor="middle" x="185.5" y="-63.5" font-family="Helvetica,sans-Serif" font-size="10.00">SoftwareSerial.h</text>
</a>
</g>
</g>
<!-- Node1&#45;&gt;Node5 -->
<g id="edge4" class="edge">
<title>Node1&#45;&gt;Node5</title>
<path fill="none" stroke="midnightblue" d="M223.9,-112.08C217.27,-104.3 207.48,-92.8 199.44,-83.37"/>
<polygon fill="midnightblue" stroke="midnightblue" points="202.1,-81.09 192.95,-75.75 196.77,-85.63 202.1,-81.09"/>
</g>
<!-- Node6 -->
<g id="node6" class="node">
<title>Node6</title>
<g id="a_node6"><a xlink:title=" ">
<polygon fill="white" stroke="#bfbfbf" points="252,-56.5 252,-75.5 303,-75.5 303,-56.5 252,-56.5"/>
<text text-anchor="middle" x="277.5" y="-63.5" font-family="Helvetica,sans-Serif" font-size="10.00">math.h</text>
</a>
</g>
</g>
<!-- Node1&#45;&gt;Node6 -->
<g id="edge5" class="edge">
<title>Node1&#45;&gt;Node6</title>
<path fill="none" stroke="midnightblue" d="M239.1,-112.08C245.73,-104.3 255.52,-92.8 263.56,-83.37"/>
<polygon fill="midnightblue" stroke="midnightblue" points="266.23,-85.63 270.05,-75.75 260.9,-81.09 266.23,-85.63"/>
</g>
<!-- Node7 -->
<g id="node7" class="node">
<title>Node7</title>
<g id="a_node7"><a xlink:title=" ">
<polygon fill="white" stroke="#bfbfbf" points="321,-56.5 321,-75.5 374,-75.5 374,-56.5 321,-56.5"/>
<text text-anchor="middle" x="347.5" y="-63.5" font-family="Helvetica,sans-Serif" font-size="10.00">string.h</text>
</a>
</g>
</g>
<!-- Node1&#45;&gt;Node7 -->
<g id="edge6" class="edge">
<title>Node1&#45;&gt;Node7</title>
<path fill="none" stroke="midnightblue" d="M249.88,-112.44C268.72,-103.68 298.23,-89.94 319.88,-79.86"/>
<polygon fill="midnightblue" stroke="midnightblue" points="321.62,-82.91 329.21,-75.52 318.66,-76.56 321.62,-82.91"/>
</g>
<!-- Node3 -->
<g id="node3" class="node">
<title>Node3</title>
<g id="a_node3"><a xlink:title=" ">
<polygon fill="white" stroke="#bfbfbf" points="0,-0.5 0,-19.5 63,-19.5 63,-0.5 0,-0.5"/>
<text text-anchor="middle" x="31.5" y="-7.5" font-family="Helvetica,sans-Serif" font-size="10.00">Arduino.h</text>
</a>
</g>
</g>
<!-- Node2&#45;&gt;Node3 -->
<g id="edge2" class="edge">
<title>Node2&#45;&gt;Node3</title>
<path fill="none" stroke="midnightblue" d="M69.9,-56.08C63.27,-48.3 53.48,-36.8 45.44,-27.37"/>
<polygon fill="midnightblue" stroke="midnightblue" points="48.1,-25.09 38.95,-19.75 42.77,-29.63 48.1,-25.09"/>
</g>
<!-- Node4 -->
<g id="node4" class="node">
<title>Node4</title>
<g id="a_node4"><a xlink:title=" ">
<polygon fill="white" stroke="#bfbfbf" points="81.5,-0.5 81.5,-19.5 167.5,-19.5 167.5,-0.5 81.5,-0.5"/>
<text text-anchor="middle" x="124.5" y="-7.5" font-family="Helvetica,sans-Serif" font-size="10.00">TinyGPSPlus.h</text>
</a>
</g>
</g>
<!-- Node2&#45;&gt;Node4 -->
<g id="edge3" class="edge">
<title>Node2&#45;&gt;Node4</title>
<path fill="none" stroke="midnightblue" d="M85.26,-56.08C92.04,-48.3 102.04,-36.8 110.26,-27.37"/>
<polygon fill="midnightblue" stroke="midnightblue" points="112.96,-29.59 116.88,-19.75 107.68,-25 112.96,-29.59"/>
</g>
</g>
</svg>
