<?xml version="1.0" encoding="UTF-8" standalone="no"?>
<!DOCTYPE svg PUBLIC "-//W3C//DTD SVG 1.1//EN"
 "http://www.w3.org/Graphics/SVG/1.1/DTD/svg11.dtd">
<!-- Generated by graphviz version 2.43.0 (0)
 -->
<!-- Title: src/lora_handler.cpp Pages: 1 -->
<svg width="158pt" height="140pt"
 viewBox="0.00 0.00 157.50 140.00" xmlns="http://www.w3.org/2000/svg" xmlns:xlink="http://www.w3.org/1999/xlink">
<g id="graph0" class="graph" transform="scale(1 1) rotate(0) translate(4 136)">
<title>src/lora_handler.cpp</title>
<polygon fill="white" stroke="transparent" points="-4,4 -4,-136 153.5,-136 153.5,4 -4,4"/>
<!-- Node1 -->
<g id="node1" class="node">
<title>Node1</title>
<g id="a_node1"><a xlink:title="Implementaci贸n de las funcionalidades de SX1262 (RadioLib) para transmisi贸n LoRa.">
<polygon fill="#bfbfbf" stroke="black" points="22.5,-112.5 22.5,-131.5 136.5,-131.5 136.5,-112.5 22.5,-112.5"/>
<text text-anchor="middle" x="79.5" y="-119.5" font-family="Helvetica,sans-Serif" font-size="10.00">src/lora_handler.cpp</text>
</a>
</g>
</g>
<!-- Node2 -->
<g id="node2" class="node">
<title>Node2</title>
<g id="a_node2"><a xlink:href="lora__handler_8h.html" target="_top" xlink:title="Definici贸n de las funciones de transmisi贸n LoRa (SX1262/RadioLib) para el nodo de la mascota.">
<polygon fill="white" stroke="black" points="1.5,-56.5 1.5,-75.5 87.5,-75.5 87.5,-56.5 1.5,-56.5"/>
<text text-anchor="middle" x="44.5" y="-63.5" font-family="Helvetica,sans-Serif" font-size="10.00">lora_handler.h</text>
</a>
</g>
</g>
<!-- Node1&#45;&gt;Node2 -->
<g id="edge1" class="edge">
<title>Node1&#45;&gt;Node2</title>
<path fill="none" stroke="midnightblue" d="M73.72,-112.08C68.83,-104.53 61.67,-93.49 55.67,-84.23"/>
<polygon fill="midnightblue" stroke="midnightblue" points="58.55,-82.24 50.17,-75.75 52.67,-86.05 58.55,-82.24"/>
</g>
<!-- Node4 -->
<g id="node4" class="node">
<title>Node4</title>
<g id="a_node4"><a xlink:title=" ">
<polygon fill="white" stroke="#bfbfbf" points="81.5,-0.5 81.5,-19.5 149.5,-19.5 149.5,-0.5 81.5,-0.5"/>
<text text-anchor="middle" x="115.5" y="-7.5" font-family="Helvetica,sans-Serif" font-size="10.00">RadioLib.h</text>
</a>
</g>
</g>
<!-- Node1&#45;&gt;Node4 -->
<g id="edge4" class="edge">
<title>Node1&#45;&gt;Node4</title>
<path fill="none" stroke="midnightblue" d="M82.96,-112.44C86.54,-103.44 92.21,-88.83 96.5,-76 101.69,-60.49 106.84,-42.65 110.47,-29.59"/>
<polygon fill="midnightblue" stroke="midnightblue" points="113.86,-30.47 113.13,-19.9 107.11,-28.62 113.86,-30.47"/>
</g>
<!-- Node3 -->
<g id="node3" class="node">
<title>Node3</title>
<g id="a_node3"><a xlink:title=" ">
<polygon fill="white" stroke="#bfbfbf" points="0,-0.5 0,-19.5 63,-19.5 63,-0.5 0,-0.5"/>
<text text-anchor="middle" x="31.5" y="-7.5" font-family="Helvetica,sans-Serif" font-size="10.00">Arduino.h</text>
</a>
</g>
</g>
<!-- Node2&#45;&gt;Node3 -->
<g id="edge2" class="edge">
<title>Node2&#45;&gt;Node3</title>
<path fill="none" stroke="midnightblue" d="M42.35,-56.08C40.63,-48.93 38.15,-38.64 36,-29.69"/>
<polygon fill="midnightblue" stroke="midnightblue" points="39.35,-28.65 33.61,-19.75 32.54,-30.29 39.35,-28.65"/>
</g>
<!-- Node2&#45;&gt;Node4 -->
<g id="edge3" class="edge">
<title>Node2&#45;&gt;Node4</title>
<path fill="none" stroke="midnightblue" d="M55.91,-56.32C66.61,-48.18 82.84,-35.84 95.66,-26.09"/>
<polygon fill="midnightblue" stroke="midnightblue" points="98.04,-28.67 103.89,-19.83 93.81,-23.1 98.04,-28.67"/>
</g>
</g>
</svg>
