<?xml version="1.0" encoding="UTF-8" standalone="no"?>
<!DOCTYPE svg PUBLIC "-//W3C//DTD SVG 1.1//EN"
 "http://www.w3.org/Graphics/SVG/1.1/DTD/svg11.dtd">
<!-- Generated by graphviz version 2.43.0 (0)
 -->
<!-- Title: gpsSerial Pages: 1 -->
<svg width="181pt" height="66pt"
 viewBox="0.00 0.00 181.00 66.00" xmlns="http://www.w3.org/2000/svg" xmlns:xlink="http://www.w3.org/1999/xlink">
<g id="graph0" class="graph" transform="scale(1 1) rotate(0) translate(4 62)">
<title>gpsSerial</title>
<polygon fill="white" stroke="transparent" points="-4,4 -4,-62 177,-62 177,4 -4,4"/>
<!-- Node1 -->
<g id="node1" class="node">
<title>Node1</title>
<g id="a_node1"><a xlink:title=" ">
<polygon fill="#bfbfbf" stroke="black" points="111,-19.5 111,-38.5 173,-38.5 173,-19.5 111,-19.5"/>
<text text-anchor="middle" x="142" y="-26.5" font-family="Helvetica,sans-Serif" font-size="10.00">gpsSerial</text>
</a>
</g>
</g>
<!-- Node2 -->
<g id="node2" class="node">
<title>Node2</title>
<g id="a_node2"><a xlink:href="gps__handler_8cpp.html#a5f19e424ee67f76fb7be41041854f024" target="_top" xlink:title="Inicializa SoftwareSerial hacia el receptor GNSS.">
<polygon fill="white" stroke="black" points="3.5,-38.5 3.5,-57.5 71.5,-57.5 71.5,-38.5 3.5,-38.5"/>
<text text-anchor="middle" x="37.5" y="-45.5" font-family="Helvetica,sans-Serif" font-size="10.00">GPS_begin</text>
</a>
</g>
</g>
<!-- Node1&#45;&gt;Node2 -->
<g id="edge1" class="edge">
<title>Node1&#45;&gt;Node2</title>
<path fill="none" stroke="midnightblue" d="M100.67,-36.48C91.07,-38.25 80.94,-40.13 71.71,-41.84"/>
<polygon fill="midnightblue" stroke="midnightblue" points="101.61,-39.86 110.8,-34.6 100.33,-32.98 101.61,-39.86"/>
</g>
<!-- Node3 -->
<g id="node3" class="node">
<title>Node3</title>
<g id="a_node3"><a xlink:href="gps__handler_8cpp.html#a7c9d547d0c359f65fae840093b0b01ef" target="_top" xlink:title="Lee los mensajes recibidos y los pasa al parser NMEA.">
<polygon fill="white" stroke="black" points="0,-0.5 0,-19.5 75,-19.5 75,-0.5 0,-0.5"/>
<text text-anchor="middle" x="37.5" y="-7.5" font-family="Helvetica,sans-Serif" font-size="10.00">GPS_update</text>
</a>
</g>
</g>
<!-- Node1&#45;&gt;Node3 -->
<g id="edge2" class="edge">
<title>Node1&#45;&gt;Node3</title>
<path fill="none" stroke="midnightblue" d="M100.73,-21.54C92.25,-19.96 83.34,-18.31 75.01,-16.77"/>
<polygon fill="midnightblue" stroke="midnightblue" points="100.33,-25.02 110.8,-23.4 101.61,-18.14 100.33,-25.02"/>
</g>
</g>
</svg>
