<?xml version="1.0" encoding="UTF-8" standalone="no"?>
<!DOCTYPE svg PUBLIC "-//W3C//DTD SVG 1.1//EN"
 "http://www.w3.org/Graphics/SVG/1.1/DTD/svg11.dtd">
<!-- Generated by graphviz version 2.43.0 (0)
 -->
<!-- Title: src/lcd_utils.cpp Pages: 1 -->
<svg width="384pt" height="151pt"
 viewBox="0.00 0.00 383.50 151.00" xmlns="http://www.w3.org/2000/svg" xmlns:xlink="http://www.w3.org/1999/xlink">
<g id="graph0" class="graph" transform="scale(1 1) rotate(0) translate(4 147)">
<title>src/lcd_utils.cpp</title>
<polygon fill="white" stroke="transparent" points="-4,4 -4,-147 379.5,-147 379.5,4 -4,4"/>
<!-- Node1 -->
<g id="node1" class="node">
<title>Node1</title>
<g id="a_node1"><a xlink:title="Implementación de las funciones de control de la pantalla LCD (HD44780 vía I²C).">
<polygon fill="#bfbfbf" stroke="black" points="98.5,-123.5 98.5,-142.5 193.5,-142.5 193.5,-123.5 98.5,-123.5"/>
<text text-anchor="middle" x="146" y="-130.5" font-family="Helvetica,sans-Serif" font-size="10.00">src/lcd_utils.cpp</text>
</a>
</g>
</g>
<!-- Node2 -->
<g id="node2" class="node">
<title>Node2</title>
<g id="a_node2"><a xlink:href="lcd__utils_8h.html" target="_top" xlink:title="Declaraciones del módulo de control de pantalla LCD (HD44780 I²C).">
<polygon fill="white" stroke="black" points="0,-62 0,-81 66,-81 66,-62 0,-62"/>
<text text-anchor="middle" x="33" y="-69" font-family="Helvetica,sans-Serif" font-size="10.00">lcd_utils.h</text>
</a>
</g>
</g>
<!-- Node1&#45;&gt;Node2 -->
<g id="edge1" class="edge">
<title>Node1&#45;&gt;Node2</title>
<path fill="none" stroke="midnightblue" d="M129.81,-123.48C111.1,-113.62 80.08,-97.29 58.2,-85.77"/>
<polygon fill="midnightblue" stroke="midnightblue" points="59.64,-82.57 49.16,-81.01 56.38,-88.77 59.64,-82.57"/>
</g>
<!-- Node4 -->
<g id="node4" class="node">
<title>Node4</title>
<g id="a_node4"><a xlink:title=" ">
<polygon fill="white" stroke="#bfbfbf" points="84,-62 84,-81 132,-81 132,-62 84,-62"/>
<text text-anchor="middle" x="108" y="-69" font-family="Helvetica,sans-Serif" font-size="10.00">Wire.h</text>
</a>
</g>
</g>
<!-- Node1&#45;&gt;Node4 -->
<g id="edge3" class="edge">
<title>Node1&#45;&gt;Node4</title>
<path fill="none" stroke="midnightblue" d="M140.56,-123.48C134.91,-114.64 125.94,-100.59 118.84,-89.48"/>
<polygon fill="midnightblue" stroke="midnightblue" points="121.77,-87.55 113.43,-81.01 115.87,-91.32 121.77,-87.55"/>
</g>
<!-- Node5 -->
<g id="node5" class="node">
<title>Node5</title>
<g id="a_node5"><a xlink:title=" ">
<polygon fill="white" stroke="#bfbfbf" points="150,-62 150,-81 218,-81 218,-62 150,-62"/>
<text text-anchor="middle" x="184" y="-69" font-family="Helvetica,sans-Serif" font-size="10.00">hd44780.h</text>
</a>
</g>
</g>
<!-- Node1&#45;&gt;Node5 -->
<g id="edge4" class="edge">
<title>Node1&#45;&gt;Node5</title>
<path fill="none" stroke="midnightblue" d="M151.44,-123.48C157.09,-114.64 166.06,-100.59 173.16,-89.48"/>
<polygon fill="midnightblue" stroke="midnightblue" points="176.13,-91.32 178.57,-81.01 170.23,-87.55 176.13,-91.32"/>
</g>
<!-- Node6 -->
<g id="node6" class="node">
<title>Node6</title>
<g id="a_node6"><a xlink:title=" ">
<polygon fill="white" stroke="#bfbfbf" points="236.5,-56.5 236.5,-86.5 375.5,-86.5 375.5,-56.5 236.5,-56.5"/>
<text text-anchor="start" x="244.5" y="-74.5" font-family="Helvetica,sans-Serif" font-size="10.00">hd44780ioClass/hd44780</text>
<text text-anchor="middle" x="306" y="-63.5" font-family="Helvetica,sans-Serif" font-size="10.00">_I2Cexp.h</text>
</a>
</g>
</g>
<!-- Node1&#45;&gt;Node6 -->
<g id="edge5" class="edge">
<title>Node1&#45;&gt;Node6</title>
<path fill="none" stroke="midnightblue" d="M168.92,-123.48C192.21,-114.81 228.97,-101.15 258.56,-90.14"/>
<polygon fill="midnightblue" stroke="midnightblue" points="260.14,-93.29 268.29,-86.52 257.7,-86.73 260.14,-93.29"/>
</g>
<!-- Node3 -->
<g id="node3" class="node">
<title>Node3</title>
<g id="a_node3"><a xlink:title=" ">
<polygon fill="white" stroke="#bfbfbf" points="1.5,-0.5 1.5,-19.5 64.5,-19.5 64.5,-0.5 1.5,-0.5"/>
<text text-anchor="middle" x="33" y="-7.5" font-family="Helvetica,sans-Serif" font-size="10.00">Arduino.h</text>
</a>
</g>
</g>
<!-- Node2&#45;&gt;Node3 -->
<g id="edge2" class="edge">
<title>Node2&#45;&gt;Node3</title>
<path fill="none" stroke="midnightblue" d="M33,-61.98C33,-53.58 33,-40.48 33,-29.66"/>
<polygon fill="midnightblue" stroke="midnightblue" points="36.5,-29.51 33,-19.51 29.5,-29.51 36.5,-29.51"/>
</g>
</g>
</svg>
