<?xml version="1.0" encoding="UTF-8" standalone="no"?>
<!DOCTYPE svg PUBLIC "-//W3C//DTD SVG 1.1//EN"
 "http://www.w3.org/Graphics/SVG/1.1/DTD/svg11.dtd">
<!-- Generated by graphviz version 2.43.0 (0)
 -->
<!-- Title: LORA_lastValidGPS Pages: 1 -->
<svg width="198pt" height="66pt"
 viewBox="0.00 0.00 198.00 66.00" xmlns="http://www.w3.org/2000/svg" xmlns:xlink="http://www.w3.org/1999/xlink">
<g id="graph0" class="graph" transform="scale(1 1) rotate(0) translate(4 62)">
<title>LORA_lastValidGPS</title>
<polygon fill="white" stroke="transparent" points="-4,4 -4,-62 194,-62 194,4 -4,4"/>
<!-- Node1 -->
<g id="node1" class="node">
<title>Node1</title>
<g id="a_node1"><a xlink:title="Devuelve la última estampa GNSS válida y métricas RF asociadas.">
<polygon fill="#bfbfbf" stroke="black" points="80,-19.5 80,-38.5 190,-38.5 190,-19.5 80,-19.5"/>
<text text-anchor="middle" x="135" y="-26.5" font-family="Helvetica,sans-Serif" font-size="10.00">LORA_lastValidGPS</text>
</a>
</g>
</g>
<!-- Node2 -->
<g id="node2" class="node">
<title>Node2</title>
<g id="a_node2"><a xlink:href="main_8cpp.html#afe461d27b9c48d5921c00d521181f12f" target="_top" xlink:title=" ">
<polygon fill="white" stroke="black" points="3,-38.5 3,-57.5 41,-57.5 41,-38.5 3,-38.5"/>
<text text-anchor="middle" x="22" y="-45.5" font-family="Helvetica,sans-Serif" font-size="10.00">loop</text>
</a>
</g>
</g>
<!-- Node1&#45;&gt;Node2 -->
<g id="edge1" class="edge">
<title>Node1&#45;&gt;Node2</title>
<path fill="none" stroke="midnightblue" d="M69.68,-40.01C59.2,-41.8 49.15,-43.52 41.08,-44.9"/>
<polygon fill="midnightblue" stroke="midnightblue" points="70.53,-43.41 79.8,-38.28 69.35,-36.51 70.53,-43.41"/>
</g>
<!-- Node3 -->
<g id="node3" class="node">
<title>Node3</title>
<g id="a_node3"><a xlink:href="main_8cpp.html#a4fc01d736fe50cf5b977f755b675f11d" target="_top" xlink:title=" ">
<polygon fill="white" stroke="black" points="0,-0.5 0,-19.5 44,-19.5 44,-0.5 0,-0.5"/>
<text text-anchor="middle" x="22" y="-7.5" font-family="Helvetica,sans-Serif" font-size="10.00">setup</text>
</a>
</g>
</g>
<!-- Node1&#45;&gt;Node3 -->
<g id="edge2" class="edge">
<title>Node1&#45;&gt;Node3</title>
<path fill="none" stroke="midnightblue" d="M69.74,-18C60.55,-16.43 51.69,-14.91 44.19,-13.63"/>
<polygon fill="midnightblue" stroke="midnightblue" points="69.35,-21.49 79.8,-19.72 70.53,-14.59 69.35,-21.49"/>
</g>
</g>
</svg>
