<?xml version="1.0" encoding="UTF-8" standalone="no"?>
<!DOCTYPE svg PUBLIC "-//W3C//DTD SVG 1.1//EN"
 "http://www.w3.org/Graphics/SVG/1.1/DTD/svg11.dtd">
<!-- Generated by graphviz version 2.43.0 (0)
 -->
<!-- Title: include/lora_handler.h Pages: 1 -->
<svg width="240pt" height="140pt"
 viewBox="0.00 0.00 240.00 140.00" xmlns="http://www.w3.org/2000/svg" xmlns:xlink="http://www.w3.org/1999/xlink">
<g id="graph0" class="graph" transform="scale(1 1) rotate(0) translate(4 136)">
<title>include/lora_handler.h</title>
<polygon fill="white" stroke="transparent" points="-4,4 -4,-136 236,-136 236,4 -4,4"/>
<!-- Node1 -->
<g id="node1" class="node">
<title>Node1</title>
<g id="a_node1"><a xlink:title="Definici贸n de las funciones SX1262 (RadioLib) para recepci贸n de payload GNSS por LoRa.">
<polygon fill="#bfbfbf" stroke="black" points="34,-112.5 34,-131.5 158,-131.5 158,-112.5 34,-112.5"/>
<text text-anchor="middle" x="96" y="-119.5" font-family="Helvetica,sans-Serif" font-size="10.00">include/lora_handler.h</text>
</a>
</g>
</g>
<!-- Node2 -->
<g id="node2" class="node">
<title>Node2</title>
<g id="a_node2"><a xlink:title=" ">
<polygon fill="white" stroke="#bfbfbf" points="0,-56.5 0,-75.5 68,-75.5 68,-56.5 0,-56.5"/>
<text text-anchor="middle" x="34" y="-63.5" font-family="Helvetica,sans-Serif" font-size="10.00">RadioLib.h</text>
</a>
</g>
</g>
<!-- Node1&#45;&gt;Node2 -->
<g id="edge1" class="edge">
<title>Node1&#45;&gt;Node2</title>
<path fill="none" stroke="midnightblue" d="M86.04,-112.32C76.87,-104.34 63.06,-92.31 51.97,-82.65"/>
<polygon fill="midnightblue" stroke="midnightblue" points="53.98,-79.76 44.14,-75.83 49.38,-85.04 53.98,-79.76"/>
</g>
<!-- Node3 -->
<g id="node3" class="node">
<title>Node3</title>
<g id="a_node3"><a xlink:title=" ">
<polygon fill="white" stroke="#bfbfbf" points="64.5,-0.5 64.5,-19.5 127.5,-19.5 127.5,-0.5 64.5,-0.5"/>
<text text-anchor="middle" x="96" y="-7.5" font-family="Helvetica,sans-Serif" font-size="10.00">Arduino.h</text>
</a>
</g>
</g>
<!-- Node1&#45;&gt;Node3 -->
<g id="edge2" class="edge">
<title>Node1&#45;&gt;Node3</title>
<path fill="none" stroke="midnightblue" d="M96,-112.37C96,-94.62 96,-53.67 96,-29.6"/>
<polygon fill="midnightblue" stroke="midnightblue" points="99.5,-29.59 96,-19.59 92.5,-29.59 99.5,-29.59"/>
</g>
<!-- Node4 -->
<g id="node4" class="node">
<title>Node4</title>
<g id="a_node4"><a xlink:href="gps__handler_8h.html" target="_top" xlink:title="Declaraciones del m贸dulo GPS (TinyGPS++) para lectura y codificaci贸n de coordenadas.">
<polygon fill="white" stroke="black" points="124,-56.5 124,-75.5 208,-75.5 208,-56.5 124,-56.5"/>
<text text-anchor="middle" x="166" y="-63.5" font-family="Helvetica,sans-Serif" font-size="10.00">gps_handler.h</text>
</a>
</g>
</g>
<!-- Node1&#45;&gt;Node4 -->
<g id="edge3" class="edge">
<title>Node1&#45;&gt;Node4</title>
<path fill="none" stroke="midnightblue" d="M107.25,-112.32C117.8,-104.18 133.8,-91.84 146.44,-82.09"/>
<polygon fill="midnightblue" stroke="midnightblue" points="148.77,-84.71 154.55,-75.83 144.49,-79.17 148.77,-84.71"/>
</g>
<!-- Node4&#45;&gt;Node3 -->
<g id="edge4" class="edge">
<title>Node4&#45;&gt;Node3</title>
<path fill="none" stroke="midnightblue" d="M154.75,-56.32C144.2,-48.18 128.2,-35.84 115.56,-26.09"/>
<polygon fill="midnightblue" stroke="midnightblue" points="117.51,-23.17 107.45,-19.83 113.23,-28.71 117.51,-23.17"/>
</g>
<!-- Node5 -->
<g id="node5" class="node">
<title>Node5</title>
<g id="a_node5"><a xlink:title=" ">
<polygon fill="white" stroke="#bfbfbf" points="146,-0.5 146,-19.5 232,-19.5 232,-0.5 146,-0.5"/>
<text text-anchor="middle" x="189" y="-7.5" font-family="Helvetica,sans-Serif" font-size="10.00">TinyGPSPlus.h</text>
</a>
</g>
</g>
<!-- Node4&#45;&gt;Node5 -->
<g id="edge5" class="edge">
<title>Node4&#45;&gt;Node5</title>
<path fill="none" stroke="midnightblue" d="M169.8,-56.08C172.91,-48.77 177.42,-38.18 181.29,-29.1"/>
<polygon fill="midnightblue" stroke="midnightblue" points="184.57,-30.32 185.27,-19.75 178.13,-27.58 184.57,-30.32"/>
</g>
</g>
</svg>
