<?xml version="1.0" encoding="UTF-8" standalone="no"?>
<!DOCTYPE svg PUBLIC "-//W3C//DTD SVG 1.1//EN"
 "http://www.w3.org/Graphics/SVG/1.1/DTD/svg11.dtd">
<!-- Generated by graphviz version 2.43.0 (0)
 -->
<!-- Title: src/lora_handler.cpp Pages: 1 -->
<svg width="254pt" height="196pt"
 viewBox="0.00 0.00 254.00 196.00" xmlns="http://www.w3.org/2000/svg" xmlns:xlink="http://www.w3.org/1999/xlink">
<g id="graph0" class="graph" transform="scale(1 1) rotate(0) translate(4 192)">
<title>src/lora_handler.cpp</title>
<polygon fill="white" stroke="transparent" points="-4,4 -4,-192 250,-192 250,4 -4,4"/>
<!-- Node1 -->
<g id="node1" class="node">
<title>Node1</title>
<g id="a_node1"><a xlink:title="Implementación de las funciones SX1262 (RadioLib) para recepción de payload GNSS por LoRa.">
<polygon fill="#bfbfbf" stroke="black" points="0,-168.5 0,-187.5 114,-187.5 114,-168.5 0,-168.5"/>
<text text-anchor="middle" x="57" y="-175.5" font-family="Helvetica,sans-Serif" font-size="10.00">src/lora_handler.cpp</text>
</a>
</g>
</g>
<!-- Node2 -->
<g id="node2" class="node">
<title>Node2</title>
<g id="a_node2"><a xlink:title=" ">
<polygon fill="white" stroke="#bfbfbf" points="9,-56.5 9,-75.5 77,-75.5 77,-56.5 9,-56.5"/>
<text text-anchor="middle" x="43" y="-63.5" font-family="Helvetica,sans-Serif" font-size="10.00">RadioLib.h</text>
</a>
</g>
</g>
<!-- Node1&#45;&gt;Node2 -->
<g id="edge1" class="edge">
<title>Node1&#45;&gt;Node2</title>
<path fill="none" stroke="midnightblue" d="M46.84,-168.19C38.09,-159.87 26.1,-146.54 21,-132 15.35,-115.9 22.91,-97.47 30.67,-84.35"/>
<polygon fill="midnightblue" stroke="midnightblue" points="33.67,-86.15 36.16,-75.85 27.79,-82.35 33.67,-86.15"/>
</g>
<!-- Node3 -->
<g id="node3" class="node">
<title>Node3</title>
<g id="a_node3"><a xlink:title=" ">
<polygon fill="white" stroke="#bfbfbf" points="30.5,-112.5 30.5,-131.5 83.5,-131.5 83.5,-112.5 30.5,-112.5"/>
<text text-anchor="middle" x="57" y="-119.5" font-family="Helvetica,sans-Serif" font-size="10.00">string.h</text>
</a>
</g>
</g>
<!-- Node1&#45;&gt;Node3 -->
<g id="edge2" class="edge">
<title>Node1&#45;&gt;Node3</title>
<path fill="none" stroke="midnightblue" d="M57,-168.08C57,-161.01 57,-150.86 57,-141.99"/>
<polygon fill="midnightblue" stroke="midnightblue" points="60.5,-141.75 57,-131.75 53.5,-141.75 60.5,-141.75"/>
</g>
<!-- Node4 -->
<g id="node4" class="node">
<title>Node4</title>
<g id="a_node4"><a xlink:href="lora__handler_8h.html" target="_top" xlink:title="Definición de las funciones SX1262 (RadioLib) para recepción de payload GNSS por LoRa.">
<polygon fill="white" stroke="black" points="102,-112.5 102,-131.5 188,-131.5 188,-112.5 102,-112.5"/>
<text text-anchor="middle" x="145" y="-119.5" font-family="Helvetica,sans-Serif" font-size="10.00">lora_handler.h</text>
</a>
</g>
</g>
<!-- Node1&#45;&gt;Node4 -->
<g id="edge3" class="edge">
<title>Node1&#45;&gt;Node4</title>
<path fill="none" stroke="midnightblue" d="M71.14,-168.32C84.87,-159.9 105.94,-146.97 122.06,-137.07"/>
<polygon fill="midnightblue" stroke="midnightblue" points="124.2,-139.87 130.9,-131.65 120.54,-133.9 124.2,-139.87"/>
</g>
<!-- Node4&#45;&gt;Node2 -->
<g id="edge4" class="edge">
<title>Node4&#45;&gt;Node2</title>
<path fill="none" stroke="midnightblue" d="M128.61,-112.32C112.33,-103.7 87.13,-90.36 68.28,-80.39"/>
<polygon fill="midnightblue" stroke="midnightblue" points="69.82,-77.24 59.35,-75.65 66.55,-83.43 69.82,-77.24"/>
</g>
<!-- Node5 -->
<g id="node5" class="node">
<title>Node5</title>
<g id="a_node5"><a xlink:title=" ">
<polygon fill="white" stroke="#bfbfbf" points="78.5,-0.5 78.5,-19.5 141.5,-19.5 141.5,-0.5 78.5,-0.5"/>
<text text-anchor="middle" x="110" y="-7.5" font-family="Helvetica,sans-Serif" font-size="10.00">Arduino.h</text>
</a>
</g>
</g>
<!-- Node4&#45;&gt;Node5 -->
<g id="edge5" class="edge">
<title>Node4&#45;&gt;Node5</title>
<path fill="none" stroke="midnightblue" d="M141.79,-112.42C138.44,-103.41 133.14,-88.78 129,-76 123.97,-60.44 118.79,-42.61 115.12,-29.56"/>
<polygon fill="midnightblue" stroke="midnightblue" points="118.48,-28.57 112.42,-19.88 111.74,-30.45 118.48,-28.57"/>
</g>
<!-- Node6 -->
<g id="node6" class="node">
<title>Node6</title>
<g id="a_node6"><a xlink:href="gps__handler_8h.html" target="_top" xlink:title="Declaraciones del módulo GPS (TinyGPS++) para lectura y codificación de coordenadas.">
<polygon fill="white" stroke="black" points="138,-56.5 138,-75.5 222,-75.5 222,-56.5 138,-56.5"/>
<text text-anchor="middle" x="180" y="-63.5" font-family="Helvetica,sans-Serif" font-size="10.00">gps_handler.h</text>
</a>
</g>
</g>
<!-- Node4&#45;&gt;Node6 -->
<g id="edge6" class="edge">
<title>Node4&#45;&gt;Node6</title>
<path fill="none" stroke="midnightblue" d="M150.78,-112.08C155.67,-104.53 162.83,-93.49 168.83,-84.23"/>
<polygon fill="midnightblue" stroke="midnightblue" points="171.83,-86.05 174.33,-75.75 165.95,-82.24 171.83,-86.05"/>
</g>
<!-- Node6&#45;&gt;Node5 -->
<g id="edge7" class="edge">
<title>Node6&#45;&gt;Node5</title>
<path fill="none" stroke="midnightblue" d="M168.75,-56.32C158.2,-48.18 142.2,-35.84 129.56,-26.09"/>
<polygon fill="midnightblue" stroke="midnightblue" points="131.51,-23.17 121.45,-19.83 127.23,-28.71 131.51,-23.17"/>
</g>
<!-- Node7 -->
<g id="node7" class="node">
<title>Node7</title>
<g id="a_node7"><a xlink:title=" ">
<polygon fill="white" stroke="#bfbfbf" points="160,-0.5 160,-19.5 246,-19.5 246,-0.5 160,-0.5"/>
<text text-anchor="middle" x="203" y="-7.5" font-family="Helvetica,sans-Serif" font-size="10.00">TinyGPSPlus.h</text>
</a>
</g>
</g>
<!-- Node6&#45;&gt;Node7 -->
<g id="edge8" class="edge">
<title>Node6&#45;&gt;Node7</title>
<path fill="none" stroke="midnightblue" d="M183.8,-56.08C186.91,-48.77 191.42,-38.18 195.29,-29.1"/>
<polygon fill="midnightblue" stroke="midnightblue" points="198.57,-30.32 199.27,-19.75 192.13,-27.58 198.57,-30.32"/>
</g>
</g>
</svg>
