<?xml version="1.0" encoding="UTF-8" standalone="no"?>
<!DOCTYPE svg PUBLIC "-//W3C//DTD SVG 1.1//EN"
 "http://www.w3.org/Graphics/SVG/1.1/DTD/svg11.dtd">
<!-- Generated by graphviz version 2.43.0 (0)
 -->
<!-- Title: loop Pages: 1 -->
<svg width="335pt" height="104pt"
 viewBox="0.00 0.00 335.00 104.00" xmlns="http://www.w3.org/2000/svg" xmlns:xlink="http://www.w3.org/1999/xlink">
<g id="graph0" class="graph" transform="scale(1 1) rotate(0) translate(4 100)">
<title>loop</title>
<polygon fill="white" stroke="transparent" points="-4,4 -4,-100 331,-100 331,4 -4,4"/>
<!-- Node1 -->
<g id="node1" class="node">
<title>Node1</title>
<g id="a_node1"><a xlink:title=" ">
<polygon fill="#bfbfbf" stroke="black" points="0,-38.5 0,-57.5 38,-57.5 38,-38.5 0,-38.5"/>
<text text-anchor="middle" x="19" y="-45.5" font-family="Helvetica,sans-Serif" font-size="10.00">loop</text>
</a>
</g>
</g>
<!-- Node2 -->
<g id="node2" class="node">
<title>Node2</title>
<g id="a_node2"><a xlink:href="lora__handler_8cpp.html#ade173c01345065d987f924f17ec37ae3" target="_top" xlink:title="Devuelve la última estampa GNSS válida y métricas RF asociadas.">
<polygon fill="white" stroke="black" points="74,-76.5 74,-95.5 184,-95.5 184,-76.5 74,-76.5"/>
<text text-anchor="middle" x="129" y="-83.5" font-family="Helvetica,sans-Serif" font-size="10.00">LORA_lastValidGPS</text>
</a>
</g>
</g>
<!-- Node1&#45;&gt;Node2 -->
<g id="edge1" class="edge">
<title>Node1&#45;&gt;Node2</title>
<path fill="none" stroke="midnightblue" d="M38.32,-54.45C52.74,-59.52 73.31,-66.76 91.11,-73.02"/>
<polygon fill="midnightblue" stroke="midnightblue" points="90.06,-76.36 100.66,-76.38 92.38,-69.76 90.06,-76.36"/>
</g>
<!-- Node3 -->
<g id="node3" class="node">
<title>Node3</title>
<g id="a_node3"><a xlink:href="lora__handler_8cpp.html#a29163574257f918a01cf1d82d384fde3" target="_top" xlink:title="Debe llamarse con frecuencia desde loop() para procesar paquetes.">
<polygon fill="white" stroke="black" points="90,-38.5 90,-57.5 168,-57.5 168,-38.5 90,-38.5"/>
<text text-anchor="middle" x="129" y="-45.5" font-family="Helvetica,sans-Serif" font-size="10.00">LORA_rxTick</text>
</a>
</g>
</g>
<!-- Node1&#45;&gt;Node3 -->
<g id="edge2" class="edge">
<title>Node1&#45;&gt;Node3</title>
<path fill="none" stroke="midnightblue" d="M38.32,-48C49.76,-48 65.07,-48 79.8,-48"/>
<polygon fill="midnightblue" stroke="midnightblue" points="79.85,-51.5 89.85,-48 79.85,-44.5 79.85,-51.5"/>
</g>
<!-- Node5 -->
<g id="node5" class="node">
<title>Node5</title>
<g id="a_node5"><a xlink:href="main_8cpp.html#a48f3f185be3ea2d153c347a157b38d42" target="_top" xlink:title=" ">
<polygon fill="white" stroke="black" points="105.5,-0.5 105.5,-19.5 152.5,-19.5 152.5,-0.5 105.5,-0.5"/>
<text text-anchor="middle" x="129" y="-7.5" font-family="Helvetica,sans-Serif" font-size="10.00">server</text>
</a>
</g>
</g>
<!-- Node1&#45;&gt;Node5 -->
<g id="edge4" class="edge">
<title>Node1&#45;&gt;Node5</title>
<path fill="none" stroke="midnightblue" d="M38.32,-41.55C54.03,-36.03 77.04,-27.93 95.82,-21.32"/>
<polygon fill="midnightblue" stroke="midnightblue" points="97.19,-24.55 105.46,-17.93 94.87,-17.95 97.19,-24.55"/>
</g>
<!-- Node4 -->
<g id="node4" class="node">
<title>Node4</title>
<g id="a_node4"><a xlink:href="gps__handler_8cpp.html#a74d00bb78d95d1bb57d14d20a5abffa0" target="_top" xlink:title="Decodifica 13 B a GpsInfo; exige fix_flag==1.">
<polygon fill="white" stroke="black" points="220,-38.5 220,-57.5 327,-57.5 327,-38.5 220,-38.5"/>
<text text-anchor="middle" x="273.5" y="-45.5" font-family="Helvetica,sans-Serif" font-size="10.00">GPS_parsePayload</text>
</a>
</g>
</g>
<!-- Node3&#45;&gt;Node4 -->
<g id="edge3" class="edge">
<title>Node3&#45;&gt;Node4</title>
<path fill="none" stroke="midnightblue" d="M168.19,-48C180.92,-48 195.47,-48 209.58,-48"/>
<polygon fill="midnightblue" stroke="midnightblue" points="209.74,-51.5 219.74,-48 209.74,-44.5 209.74,-51.5"/>
</g>
</g>
</svg>
