<?xml version="1.0" encoding="UTF-8" standalone="no"?>
<!DOCTYPE svg PUBLIC "-//W3C//DTD SVG 1.1//EN"
 "http://www.w3.org/Graphics/SVG/1.1/DTD/svg11.dtd">
<!-- Generated by graphviz version 2.43.0 (0)
 -->
<!-- Title: setup Pages: 1 -->
<svg width="529pt" height="408pt"
 viewBox="0.00 0.00 529.00 408.00" xmlns="http://www.w3.org/2000/svg" xmlns:xlink="http://www.w3.org/1999/xlink">
<g id="graph0" class="graph" transform="scale(1 1) rotate(0) translate(4 404)">
<title>setup</title>
<polygon fill="white" stroke="transparent" points="-4,4 -4,-404 525,-404 525,4 -4,4"/>
<!-- Node1 -->
<g id="node1" class="node">
<title>Node1</title>
<g id="a_node1"><a xlink:title=" ">
<polygon fill="#bfbfbf" stroke="black" points="0,-190.5 0,-209.5 44,-209.5 44,-190.5 0,-190.5"/>
<text text-anchor="middle" x="22" y="-197.5" font-family="Helvetica,sans-Serif" font-size="10.00">setup</text>
</a>
</g>
</g>
<!-- Node2 -->
<g id="node2" class="node">
<title>Node2</title>
<g id="a_node2"><a xlink:href="lcd__utils_8cpp.html#a739d2f9fcac47e62252034b13f13d83f" target="_top" xlink:title="Configuración inicial del bus I²C y del LCD.">
<polygon fill="white" stroke="black" points="138,-380.5 138,-399.5 195,-399.5 195,-380.5 138,-380.5"/>
<text text-anchor="middle" x="166.5" y="-387.5" font-family="Helvetica,sans-Serif" font-size="10.00">confLCD</text>
</a>
</g>
</g>
<!-- Node1&#45;&gt;Node2 -->
<g id="edge1" class="edge">
<title>Node1&#45;&gt;Node2</title>
<path fill="none" stroke="midnightblue" d="M23.12,-209.89C24.04,-239.29 30.97,-326.78 80,-371 92.78,-382.53 110.98,-387.58 127.3,-389.62"/>
<polygon fill="midnightblue" stroke="midnightblue" points="127.4,-393.14 137.68,-390.57 128.04,-386.17 127.4,-393.14"/>
</g>
<!-- Node3 -->
<g id="node3" class="node">
<title>Node3</title>
<g id="a_node3"><a xlink:href="html__pages_8cpp.html#a3b40815d441c73ecfe582e17ba9a67e0" target="_top" xlink:title="Genera la página que muestra las coordenadas de la mascota.">
<polygon fill="white" stroke="black" points="105.5,-342.5 105.5,-361.5 227.5,-361.5 227.5,-342.5 105.5,-342.5"/>
<text text-anchor="middle" x="166.5" y="-349.5" font-family="Helvetica,sans-Serif" font-size="10.00">generateCoordsHTML</text>
</a>
</g>
</g>
<!-- Node1&#45;&gt;Node3 -->
<g id="edge2" class="edge">
<title>Node1&#45;&gt;Node3</title>
<path fill="none" stroke="midnightblue" d="M24.17,-209.82C27.65,-234.62 40.36,-300.13 80,-333 84.65,-336.86 89.91,-339.97 95.49,-342.49"/>
<polygon fill="midnightblue" stroke="midnightblue" points="94.53,-345.86 105.12,-346.17 97.03,-339.33 94.53,-345.86"/>
</g>
<!-- Node4 -->
<g id="node4" class="node">
<title>Node4</title>
<g id="a_node4"><a xlink:href="html__pages_8cpp.html#a98a925f65b9d12423436b785bd0b0ff3" target="_top" xlink:title="Genera la pantalla de aviso de &quot;Credenciales guardadas&quot;.">
<polygon fill="white" stroke="black" points="80,-304.5 80,-323.5 253,-323.5 253,-304.5 80,-304.5"/>
<text text-anchor="middle" x="166.5" y="-311.5" font-family="Helvetica,sans-Serif" font-size="10.00">generateCredentialsSavedHTML</text>
</a>
</g>
</g>
<!-- Node1&#45;&gt;Node4 -->
<g id="edge3" class="edge">
<title>Node1&#45;&gt;Node4</title>
<path fill="none" stroke="midnightblue" d="M25.89,-209.58C32.25,-228.98 49.42,-272.96 80,-295 82.57,-296.85 85.29,-298.53 88.11,-300.05"/>
<polygon fill="midnightblue" stroke="midnightblue" points="86.9,-303.34 97.44,-304.37 89.84,-296.99 86.9,-303.34"/>
</g>
<!-- Node5 -->
<g id="node5" class="node">
<title>Node5</title>
<g id="a_node5"><a xlink:href="html__pages_8cpp.html#aaf277a9a956e7e369e56693ae25780ce" target="_top" xlink:title="Genera la página web de la lista de redes escaneadas.">
<polygon fill="white" stroke="black" points="87.5,-266.5 87.5,-285.5 245.5,-285.5 245.5,-266.5 87.5,-266.5"/>
<text text-anchor="middle" x="166.5" y="-273.5" font-family="Helvetica,sans-Serif" font-size="10.00">generateScanNetworksHTML</text>
</a>
</g>
</g>
<!-- Node1&#45;&gt;Node5 -->
<g id="edge4" class="edge">
<title>Node1&#45;&gt;Node5</title>
<path fill="none" stroke="midnightblue" d="M29.89,-209.75C39.56,-222.65 58.41,-245.15 80,-257 84.19,-259.3 88.65,-261.33 93.24,-263.1"/>
<polygon fill="midnightblue" stroke="midnightblue" points="92.21,-266.45 102.8,-266.42 94.5,-259.84 92.21,-266.45"/>
</g>
<!-- Node6 -->
<g id="node6" class="node">
<title>Node6</title>
<g id="a_node6"><a xlink:href="wifi__manager_8cpp.html#a7366b308d83e321ec68741802ec46934" target="_top" xlink:title="POST /submit: guarda credenciales, redirige y programa reinicio.">
<polygon fill="white" stroke="black" points="112,-228.5 112,-247.5 221,-247.5 221,-228.5 112,-228.5"/>
<text text-anchor="middle" x="166.5" y="-235.5" font-family="Helvetica,sans-Serif" font-size="10.00">handleFormSubmit</text>
</a>
</g>
</g>
<!-- Node1&#45;&gt;Node6 -->
<g id="edge5" class="edge">
<title>Node1&#45;&gt;Node6</title>
<path fill="none" stroke="midnightblue" d="M44.03,-205.61C63.92,-210.91 94.43,-219.05 119.9,-225.84"/>
<polygon fill="midnightblue" stroke="midnightblue" points="119.17,-229.27 129.73,-228.46 120.97,-222.5 119.17,-229.27"/>
</g>
<!-- Node8 -->
<g id="node8" class="node">
<title>Node8</title>
<g id="a_node8"><a xlink:href="lcd__utils_8cpp.html#a28d0b9d595f60ae4ca04a6a9d7e11ef5" target="_top" xlink:title="Muestra un mensaje en la pantalla LCD (máx. 2 líneas).">
<polygon fill="white" stroke="black" points="416,-152.5 416,-171.5 521,-171.5 521,-152.5 416,-152.5"/>
<text text-anchor="middle" x="468.5" y="-159.5" font-family="Helvetica,sans-Serif" font-size="10.00">showLCDMessage</text>
</a>
</g>
</g>
<!-- Node1&#45;&gt;Node8 -->
<g id="edge20" class="edge">
<title>Node1&#45;&gt;Node8</title>
<path fill="none" stroke="midnightblue" d="M44.39,-199.25C99.91,-197.14 253.16,-190.38 380,-176 388.35,-175.05 397.12,-173.87 405.75,-172.6"/>
<polygon fill="midnightblue" stroke="midnightblue" points="406.43,-176.04 415.79,-171.08 405.37,-169.12 406.43,-176.04"/>
</g>
<!-- Node9 -->
<g id="node9" class="node">
<title>Node9</title>
<g id="a_node9"><a xlink:href="wifi__manager_8cpp.html#a10827b8bfa7fec1b64a733df6e192f74" target="_top" xlink:title="Conexión inicial: intenta STA; si falla, levanta AP y guía por LCD al usuario.">
<polygon fill="white" stroke="black" points="112.5,-152.5 112.5,-171.5 220.5,-171.5 220.5,-152.5 112.5,-152.5"/>
<text text-anchor="middle" x="166.5" y="-159.5" font-family="Helvetica,sans-Serif" font-size="10.00">initWiFiConnection</text>
</a>
</g>
</g>
<!-- Node1&#45;&gt;Node9 -->
<g id="edge8" class="edge">
<title>Node1&#45;&gt;Node9</title>
<path fill="none" stroke="midnightblue" d="M44.03,-194.39C63.92,-189.09 94.43,-180.95 119.9,-174.16"/>
<polygon fill="midnightblue" stroke="midnightblue" points="120.97,-177.5 129.73,-171.54 119.17,-170.73 120.97,-177.5"/>
</g>
<!-- Node13 -->
<g id="node13" class="node">
<title>Node13</title>
<g id="a_node13"><a xlink:href="lora__handler_8cpp.html#a0269a771b42dac59079cf8c7a605e5e2" target="_top" xlink:title="Inicializa el SX1262 con la configuración LoRa indicada.">
<polygon fill="white" stroke="black" points="129,-114.5 129,-133.5 204,-133.5 204,-114.5 129,-114.5"/>
<text text-anchor="middle" x="166.5" y="-121.5" font-family="Helvetica,sans-Serif" font-size="10.00">LORA_begin</text>
</a>
</g>
</g>
<!-- Node1&#45;&gt;Node13 -->
<g id="edge15" class="edge">
<title>Node1&#45;&gt;Node13</title>
<path fill="none" stroke="midnightblue" d="M29.89,-190.25C39.56,-177.35 58.41,-154.85 80,-143 91.9,-136.47 105.89,-132.18 119.07,-129.37"/>
<polygon fill="midnightblue" stroke="midnightblue" points="119.78,-132.8 128.95,-127.49 118.47,-125.92 119.78,-132.8"/>
</g>
<!-- Node14 -->
<g id="node14" class="node">
<title>Node14</title>
<g id="a_node14"><a xlink:href="lora__handler_8cpp.html#ade173c01345065d987f924f17ec37ae3" target="_top" xlink:title="Devuelve la última estampa GNSS válida y métricas RF asociadas.">
<polygon fill="white" stroke="black" points="111.5,-76.5 111.5,-95.5 221.5,-95.5 221.5,-76.5 111.5,-76.5"/>
<text text-anchor="middle" x="166.5" y="-83.5" font-family="Helvetica,sans-Serif" font-size="10.00">LORA_lastValidGPS</text>
</a>
</g>
</g>
<!-- Node1&#45;&gt;Node14 -->
<g id="edge16" class="edge">
<title>Node1&#45;&gt;Node14</title>
<path fill="none" stroke="midnightblue" d="M25.89,-190.42C32.25,-171.02 49.42,-127.04 80,-105 86.42,-100.37 93.76,-96.84 101.38,-94.15"/>
<polygon fill="midnightblue" stroke="midnightblue" points="102.6,-97.44 111.14,-91.18 100.56,-90.75 102.6,-97.44"/>
</g>
<!-- Node15 -->
<g id="node15" class="node">
<title>Node15</title>
<g id="a_node15"><a xlink:href="lora__handler_8cpp.html#a1d07ae351d5fb839489b8132a4357bed" target="_top" xlink:title="Registra la ISR de recepción y entra en modo RX.">
<polygon fill="white" stroke="black" points="125,-38.5 125,-57.5 208,-57.5 208,-38.5 125,-38.5"/>
<text text-anchor="middle" x="166.5" y="-45.5" font-family="Helvetica,sans-Serif" font-size="10.00">LORA_startRx</text>
</a>
</g>
</g>
<!-- Node1&#45;&gt;Node15 -->
<g id="edge17" class="edge">
<title>Node1&#45;&gt;Node15</title>
<path fill="none" stroke="midnightblue" d="M24.17,-190.18C27.65,-165.38 40.36,-99.87 80,-67 89.79,-58.88 102.31,-54.04 114.73,-51.2"/>
<polygon fill="midnightblue" stroke="midnightblue" points="115.44,-54.63 124.62,-49.33 114.14,-47.75 115.44,-54.63"/>
</g>
<!-- Node17 -->
<g id="node17" class="node">
<title>Node17</title>
<g id="a_node17"><a xlink:href="main_8cpp.html#a48f3f185be3ea2d153c347a157b38d42" target="_top" xlink:title=" ">
<polygon fill="white" stroke="black" points="143,-0.5 143,-19.5 190,-19.5 190,-0.5 143,-0.5"/>
<text text-anchor="middle" x="166.5" y="-7.5" font-family="Helvetica,sans-Serif" font-size="10.00">server</text>
</a>
</g>
</g>
<!-- Node1&#45;&gt;Node17 -->
<g id="edge19" class="edge">
<title>Node1&#45;&gt;Node17</title>
<path fill="none" stroke="midnightblue" d="M23.12,-190.11C24.04,-160.71 30.97,-73.22 80,-29 94.12,-16.27 114.85,-11.44 132.36,-9.83"/>
<polygon fill="midnightblue" stroke="midnightblue" points="132.98,-13.3 142.75,-9.21 132.56,-6.31 132.98,-13.3"/>
</g>
<!-- Node7 -->
<g id="node7" class="node">
<title>Node7</title>
<g id="a_node7"><a xlink:href="wifi__manager_8cpp.html#a09c0390501244c73dac7006a4a254d47" target="_top" xlink:title="Guarda SSID y password (dos líneas) en CONFIG_FILE.">
<polygon fill="white" stroke="black" points="293,-266.5 293,-285.5 376,-285.5 376,-266.5 293,-266.5"/>
<text text-anchor="middle" x="334.5" y="-273.5" font-family="Helvetica,sans-Serif" font-size="10.00">saveWiFiConf</text>
</a>
</g>
</g>
<!-- Node6&#45;&gt;Node7 -->
<g id="edge6" class="edge">
<title>Node6&#45;&gt;Node7</title>
<path fill="none" stroke="midnightblue" d="M211.02,-247.56C224.49,-250.54 239.36,-253.88 253,-257 262.87,-259.26 273.41,-261.72 283.5,-264.09"/>
<polygon fill="midnightblue" stroke="midnightblue" points="282.86,-267.54 293.4,-266.43 284.47,-260.72 282.86,-267.54"/>
</g>
<!-- Node6&#45;&gt;Node8 -->
<g id="edge7" class="edge">
<title>Node6&#45;&gt;Node8</title>
<path fill="none" stroke="midnightblue" d="M221.24,-238.14C265.03,-236.8 327.92,-231.51 380,-214 404.59,-205.73 429.75,-189.85 446.75,-177.8"/>
<polygon fill="midnightblue" stroke="midnightblue" points="449.27,-180.29 455.29,-171.57 445.15,-174.63 449.27,-180.29"/>
</g>
<!-- Node9&#45;&gt;Node8 -->
<g id="edge10" class="edge">
<title>Node9&#45;&gt;Node8</title>
<path fill="none" stroke="midnightblue" d="M220.79,-162C272.59,-162 351.23,-162 405.74,-162"/>
<polygon fill="midnightblue" stroke="midnightblue" points="405.96,-165.5 415.96,-162 405.96,-158.5 405.96,-165.5"/>
</g>
<!-- Node10 -->
<g id="node10" class="node">
<title>Node10</title>
<g id="a_node10"><a xlink:href="wifi__manager_8cpp.html#a95148182fea291cfde47143f6f2a1514" target="_top" xlink:title="Carga SSID y password de CONFIG_FILE.">
<polygon fill="white" stroke="black" points="294,-114.5 294,-133.5 375,-133.5 375,-114.5 294,-114.5"/>
<text text-anchor="middle" x="334.5" y="-121.5" font-family="Helvetica,sans-Serif" font-size="10.00">loadWiFiConf</text>
</a>
</g>
</g>
<!-- Node9&#45;&gt;Node10 -->
<g id="edge9" class="edge">
<title>Node9&#45;&gt;Node10</title>
<path fill="none" stroke="midnightblue" d="M211.02,-152.44C224.49,-149.46 239.36,-146.12 253,-143 262.97,-140.72 273.63,-138.23 283.82,-135.83"/>
<polygon fill="midnightblue" stroke="midnightblue" points="284.88,-139.18 293.81,-133.48 283.27,-132.37 284.88,-139.18"/>
</g>
<!-- Node11 -->
<g id="node11" class="node">
<title>Node11</title>
<g id="a_node11"><a xlink:href="wifi__manager_8cpp.html#aa667b9ec9c4343dc605b8a5f92dbd794" target="_top" xlink:title="Levanta AP con SSID/clave fijos (prototipo).">
<polygon fill="white" stroke="black" points="298,-76.5 298,-95.5 371,-95.5 371,-76.5 298,-76.5"/>
<text text-anchor="middle" x="334.5" y="-83.5" font-family="Helvetica,sans-Serif" font-size="10.00">startWiFiAP</text>
</a>
</g>
</g>
<!-- Node9&#45;&gt;Node11 -->
<g id="edge11" class="edge">
<title>Node9&#45;&gt;Node11</title>
<path fill="none" stroke="midnightblue" d="M220.85,-155.26C231.94,-152.48 243.21,-148.55 253,-143 273.24,-131.53 269.9,-118.29 289,-105 291.54,-103.23 294.27,-101.58 297.08,-100.05"/>
<polygon fill="midnightblue" stroke="midnightblue" points="298.78,-103.11 306.21,-95.56 295.69,-96.83 298.78,-103.11"/>
</g>
<!-- Node12 -->
<g id="node12" class="node">
<title>Node12</title>
<g id="a_node12"><a xlink:href="wifi__manager_8cpp.html#ac7be2f0bbb099f8cdd59d03384a7445b" target="_top" xlink:title="Intento de conexión STA con timeout.">
<polygon fill="white" stroke="black" points="289,-38.5 289,-57.5 380,-57.5 380,-38.5 289,-38.5"/>
<text text-anchor="middle" x="334.5" y="-45.5" font-family="Helvetica,sans-Serif" font-size="10.00">tryConnectWiFi</text>
</a>
</g>
</g>
<!-- Node9&#45;&gt;Node12 -->
<g id="edge13" class="edge">
<title>Node9&#45;&gt;Node12</title>
<path fill="none" stroke="midnightblue" d="M220.58,-157.95C232.17,-155.05 243.73,-150.4 253,-143 282.21,-119.69 262.06,-92.91 289,-67 290.62,-65.44 292.39,-64 294.27,-62.66"/>
<polygon fill="midnightblue" stroke="midnightblue" points="296.14,-65.62 302.95,-57.51 292.57,-59.6 296.14,-65.62"/>
</g>
<!-- Node11&#45;&gt;Node8 -->
<g id="edge12" class="edge">
<title>Node11&#45;&gt;Node8</title>
<path fill="none" stroke="midnightblue" d="M359.88,-95.51C366.51,-98.34 373.63,-101.6 380,-105 403.42,-117.51 428.69,-134.36 446.02,-146.49"/>
<polygon fill="midnightblue" stroke="midnightblue" points="444.12,-149.44 454.3,-152.36 448.16,-143.73 444.12,-149.44"/>
</g>
<!-- Node12&#45;&gt;Node8 -->
<g id="edge14" class="edge">
<title>Node12&#45;&gt;Node8</title>
<path fill="none" stroke="midnightblue" d="M362.83,-57.51C368.75,-60.15 374.79,-63.32 380,-67 410.95,-88.86 439.17,-123.26 454.77,-144.11"/>
<polygon fill="midnightblue" stroke="midnightblue" points="452.11,-146.4 460.84,-152.4 457.76,-142.26 452.11,-146.4"/>
</g>
<!-- Node16 -->
<g id="node16" class="node">
<title>Node16</title>
<g id="a_node16"><a xlink:href="lora__handler_8cpp.html#a1725e750a0528909f0f029a4fa982c94" target="_top" xlink:title=" ">
<polygon fill="white" stroke="black" points="296.5,-0.5 296.5,-19.5 372.5,-19.5 372.5,-0.5 296.5,-0.5"/>
<text text-anchor="middle" x="334.5" y="-7.5" font-family="Helvetica,sans-Serif" font-size="10.00">onPacketISR</text>
</a>
</g>
</g>
<!-- Node15&#45;&gt;Node16 -->
<g id="edge18" class="edge">
<title>Node15&#45;&gt;Node16</title>
<path fill="none" stroke="midnightblue" d="M208.41,-39.02C222.54,-35.89 238.47,-32.33 253,-29 263.82,-26.52 275.45,-23.8 286.41,-21.22"/>
<polygon fill="midnightblue" stroke="midnightblue" points="287.32,-24.6 296.25,-18.9 285.71,-17.79 287.32,-24.6"/>
</g>
</g>
</svg>
