<?xml version="1.0" encoding="UTF-8" standalone="no"?>
<!DOCTYPE svg PUBLIC "-//W3C//DTD SVG 1.1//EN"
 "http://www.w3.org/Graphics/SVG/1.1/DTD/svg11.dtd">
<!-- Generated by graphviz version 2.43.0 (0)
 -->
<!-- Title: include/gps_handler.h Pages: 1 -->
<svg width="322pt" height="140pt"
 viewBox="0.00 0.00 321.50 140.00" xmlns="http://www.w3.org/2000/svg" xmlns:xlink="http://www.w3.org/1999/xlink">
<g id="graph0" class="graph" transform="scale(1 1) rotate(0) translate(4 136)">
<title>include/gps_handler.h</title>
<polygon fill="white" stroke="transparent" points="-4,4 -4,-136 317.5,-136 317.5,4 -4,4"/>
<!-- Node1 -->
<g id="node1" class="node">
<title>Node1</title>
<g id="a_node1"><a xlink:title="Declaraciones del módulo GPS (TinyGPS++) para lectura y codificación de coordenadas.">
<polygon fill="#bfbfbf" stroke="black" points="80.5,-112.5 80.5,-131.5 202.5,-131.5 202.5,-112.5 80.5,-112.5"/>
<text text-anchor="middle" x="141.5" y="-119.5" font-family="Helvetica,sans-Serif" font-size="10.00">include/gps_handler.h</text>
</a>
</g>
</g>
<!-- Node2 -->
<g id="node2" class="node">
<title>Node2</title>
<g id="a_node2"><a xlink:href="gps__handler_8cpp.html" target="_top" xlink:title="Implementación del periférico GNSS (TinyGPS++) para el nodo de la mascota.">
<polygon fill="white" stroke="black" points="0,-56.5 0,-75.5 113,-75.5 113,-56.5 0,-56.5"/>
<text text-anchor="middle" x="56.5" y="-63.5" font-family="Helvetica,sans-Serif" font-size="10.00">src/gps_handler.cpp</text>
</a>
</g>
</g>
<!-- Node1&#45;&gt;Node2 -->
<g id="edge1" class="edge">
<title>Node1&#45;&gt;Node2</title>
<path fill="none" stroke="midnightblue" d="M119.31,-106.9C103.72,-97 83.37,-84.07 70.12,-75.65"/>
<polygon fill="midnightblue" stroke="midnightblue" points="117.53,-109.92 127.84,-112.32 121.28,-104.01 117.53,-109.92"/>
</g>
<!-- Node3 -->
<g id="node3" class="node">
<title>Node3</title>
<g id="a_node3"><a xlink:href="main_8cpp.html" target="_top" xlink:title=" ">
<polygon fill="white" stroke="black" points="102,-0.5 102,-19.5 181,-19.5 181,-0.5 102,-0.5"/>
<text text-anchor="middle" x="141.5" y="-7.5" font-family="Helvetica,sans-Serif" font-size="10.00">src/main.cpp</text>
</a>
</g>
</g>
<!-- Node1&#45;&gt;Node3 -->
<g id="edge2" class="edge">
<title>Node1&#45;&gt;Node3</title>
<path fill="none" stroke="midnightblue" d="M141.5,-102.35C141.5,-78.25 141.5,-37.31 141.5,-19.59"/>
<polygon fill="midnightblue" stroke="midnightblue" points="138,-102.37 141.5,-112.37 145,-102.37 138,-102.37"/>
</g>
<!-- Node4 -->
<g id="node4" class="node">
<title>Node4</title>
<g id="a_node4"><a xlink:href="lora__handler_8h.html" target="_top" xlink:title="Definición de las funciones SX1262 (RadioLib) para recepción de payload GNSS por LoRa.">
<polygon fill="white" stroke="black" points="169.5,-56.5 169.5,-75.5 293.5,-75.5 293.5,-56.5 169.5,-56.5"/>
<text text-anchor="middle" x="231.5" y="-63.5" font-family="Helvetica,sans-Serif" font-size="10.00">include/lora_handler.h</text>
</a>
</g>
</g>
<!-- Node1&#45;&gt;Node4 -->
<g id="edge3" class="edge">
<title>Node1&#45;&gt;Node4</title>
<path fill="none" stroke="midnightblue" d="M164.54,-107.18C181.1,-97.24 202.92,-84.15 217.08,-75.65"/>
<polygon fill="midnightblue" stroke="midnightblue" points="162.73,-104.18 155.96,-112.32 166.34,-110.18 162.73,-104.18"/>
</g>
<!-- Node4&#45;&gt;Node3 -->
<g id="edge5" class="edge">
<title>Node4&#45;&gt;Node3</title>
<path fill="none" stroke="midnightblue" d="M208.46,-51.18C191.9,-41.24 170.08,-28.15 155.92,-19.65"/>
<polygon fill="midnightblue" stroke="midnightblue" points="206.66,-54.18 217.04,-56.32 210.27,-48.18 206.66,-54.18"/>
</g>
<!-- Node5 -->
<g id="node5" class="node">
<title>Node5</title>
<g id="a_node5"><a xlink:href="lora__handler_8cpp.html" target="_top" xlink:title="Implementación de las funciones SX1262 (RadioLib) para recepción de payload GNSS por LoRa.">
<polygon fill="white" stroke="black" points="199.5,-0.5 199.5,-19.5 313.5,-19.5 313.5,-0.5 199.5,-0.5"/>
<text text-anchor="middle" x="256.5" y="-7.5" font-family="Helvetica,sans-Serif" font-size="10.00">src/lora_handler.cpp</text>
</a>
</g>
</g>
<!-- Node4&#45;&gt;Node5 -->
<g id="edge4" class="edge">
<title>Node4&#45;&gt;Node5</title>
<path fill="none" stroke="midnightblue" d="M239.84,-46.98C244.08,-37.82 249.05,-27.09 252.45,-19.75"/>
<polygon fill="midnightblue" stroke="midnightblue" points="236.65,-45.54 235.63,-56.08 243.01,-48.48 236.65,-45.54"/>
</g>
</g>
</svg>
