<?xml version="1.0" encoding="UTF-8" standalone="no"?>
<!DOCTYPE svg PUBLIC "-//W3C//DTD SVG 1.1//EN"
 "http://www.w3.org/Graphics/SVG/1.1/DTD/svg11.dtd">
<!-- Generated by graphviz version 2.43.0 (0)
 -->
<!-- Title: include/html_pages.h Pages: 1 -->
<svg width="353pt" height="84pt"
 viewBox="0.00 0.00 353.00 84.00" xmlns="http://www.w3.org/2000/svg" xmlns:xlink="http://www.w3.org/1999/xlink">
<g id="graph0" class="graph" transform="scale(1 1) rotate(0) translate(4 80)">
<title>include/html_pages.h</title>
<polygon fill="white" stroke="transparent" points="-4,4 -4,-80 349,-80 349,4 -4,4"/>
<!-- Node1 -->
<g id="node1" class="node">
<title>Node1</title>
<g id="a_node1"><a xlink:title="Declaraciones del módulo de generación de páginas HTML para el portal web.">
<polygon fill="#bfbfbf" stroke="black" points="108,-56.5 108,-75.5 229,-75.5 229,-56.5 108,-56.5"/>
<text text-anchor="middle" x="168.5" y="-63.5" font-family="Helvetica,sans-Serif" font-size="10.00">include/html_pages.h</text>
</a>
</g>
</g>
<!-- Node2 -->
<g id="node2" class="node">
<title>Node2</title>
<g id="a_node2"><a xlink:href="html__pages_8cpp.html" target="_top" xlink:title="Implementación de la generación de páginas HTML dinámicas del portal web.">
<polygon fill="white" stroke="black" points="0,-0.5 0,-19.5 111,-19.5 111,-0.5 0,-0.5"/>
<text text-anchor="middle" x="55.5" y="-7.5" font-family="Helvetica,sans-Serif" font-size="10.00">src/html_pages.cpp</text>
</a>
</g>
</g>
<!-- Node1&#45;&gt;Node2 -->
<g id="edge1" class="edge">
<title>Node1&#45;&gt;Node2</title>
<path fill="none" stroke="midnightblue" d="M141.5,-52.1C120.39,-42.01 91.64,-28.27 73.32,-19.52"/>
<polygon fill="midnightblue" stroke="midnightblue" points="140.06,-55.29 150.59,-56.44 143.08,-48.97 140.06,-55.29"/>
</g>
<!-- Node3 -->
<g id="node3" class="node">
<title>Node3</title>
<g id="a_node3"><a xlink:href="main_8cpp.html" target="_top" xlink:title=" ">
<polygon fill="white" stroke="black" points="129,-0.5 129,-19.5 208,-19.5 208,-0.5 129,-0.5"/>
<text text-anchor="middle" x="168.5" y="-7.5" font-family="Helvetica,sans-Serif" font-size="10.00">src/main.cpp</text>
</a>
</g>
</g>
<!-- Node1&#45;&gt;Node3 -->
<g id="edge2" class="edge">
<title>Node1&#45;&gt;Node3</title>
<path fill="none" stroke="midnightblue" d="M168.5,-45.8C168.5,-36.91 168.5,-26.78 168.5,-19.75"/>
<polygon fill="midnightblue" stroke="midnightblue" points="165,-46.08 168.5,-56.08 172,-46.08 165,-46.08"/>
</g>
<!-- Node4 -->
<g id="node4" class="node">
<title>Node4</title>
<g id="a_node4"><a xlink:href="wifi__manager_8cpp.html" target="_top" xlink:title="Implementación de la gestión de conexión WiFi y configuración de red.">
<polygon fill="white" stroke="black" points="226,-0.5 226,-19.5 345,-19.5 345,-0.5 226,-0.5"/>
<text text-anchor="middle" x="285.5" y="-7.5" font-family="Helvetica,sans-Serif" font-size="10.00">src/wifi_manager.cpp</text>
</a>
</g>
</g>
<!-- Node1&#45;&gt;Node4 -->
<g id="edge3" class="edge">
<title>Node1&#45;&gt;Node4</title>
<path fill="none" stroke="midnightblue" d="M196.16,-52.23C218.05,-42.13 248,-28.31 267.05,-19.52"/>
<polygon fill="midnightblue" stroke="midnightblue" points="194.65,-49.08 187.04,-56.44 197.59,-55.43 194.65,-49.08"/>
</g>
</g>
</svg>
