<?xml version="1.0" encoding="UTF-8" standalone="no"?>
<!DOCTYPE svg PUBLIC "-//W3C//DTD SVG 1.1//EN"
 "http://www.w3.org/Graphics/SVG/1.1/DTD/svg11.dtd">
<!-- Generated by graphviz version 2.43.0 (0)
 -->
<!-- Title: src/html_pages.cpp Pages: 1 -->
<svg width="284pt" height="140pt"
 viewBox="0.00 0.00 283.50 140.00" xmlns="http://www.w3.org/2000/svg" xmlns:xlink="http://www.w3.org/1999/xlink">
<g id="graph0" class="graph" transform="scale(1 1) rotate(0) translate(4 136)">
<title>src/html_pages.cpp</title>
<polygon fill="white" stroke="transparent" points="-4,4 -4,-136 279.5,-136 279.5,4 -4,4"/>
<!-- Node1 -->
<g id="node1" class="node">
<title>Node1</title>
<g id="a_node1"><a xlink:title="Implementación de la generación de páginas HTML dinámicas del portal web.">
<polygon fill="#bfbfbf" stroke="black" points="90,-112.5 90,-131.5 201,-131.5 201,-112.5 90,-112.5"/>
<text text-anchor="middle" x="145.5" y="-119.5" font-family="Helvetica,sans-Serif" font-size="10.00">src/html_pages.cpp</text>
</a>
</g>
</g>
<!-- Node2 -->
<g id="node2" class="node">
<title>Node2</title>
<g id="a_node2"><a xlink:href="html__pages_8h.html" target="_top" xlink:title="Declaraciones del módulo de generación de páginas HTML para el portal web.">
<polygon fill="white" stroke="black" points="8,-56.5 8,-75.5 91,-75.5 91,-56.5 8,-56.5"/>
<text text-anchor="middle" x="49.5" y="-63.5" font-family="Helvetica,sans-Serif" font-size="10.00">html_pages.h</text>
</a>
</g>
</g>
<!-- Node1&#45;&gt;Node2 -->
<g id="edge1" class="edge">
<title>Node1&#45;&gt;Node2</title>
<path fill="none" stroke="midnightblue" d="M130.08,-112.32C114.96,-103.82 91.68,-90.73 74.03,-80.8"/>
<polygon fill="midnightblue" stroke="midnightblue" points="75.32,-77.51 64.89,-75.65 71.89,-83.61 75.32,-77.51"/>
</g>
<!-- Node4 -->
<g id="node4" class="node">
<title>Node4</title>
<g id="a_node4"><a xlink:title=" ">
<polygon fill="white" stroke="#bfbfbf" points="81,-0.5 81,-19.5 158,-19.5 158,-0.5 81,-0.5"/>
<text text-anchor="middle" x="119.5" y="-7.5" font-family="Helvetica,sans-Serif" font-size="10.00">WebServer.h</text>
</a>
</g>
</g>
<!-- Node1&#45;&gt;Node4 -->
<g id="edge5" class="edge">
<title>Node1&#45;&gt;Node4</title>
<path fill="none" stroke="midnightblue" d="M143.46,-112.37C139.26,-94.62 129.58,-53.67 123.9,-29.6"/>
<polygon fill="midnightblue" stroke="midnightblue" points="127.24,-28.52 121.53,-19.59 120.42,-30.13 127.24,-28.52"/>
</g>
<!-- Node5 -->
<g id="node5" class="node">
<title>Node5</title>
<g id="a_node5"><a xlink:title=" ">
<polygon fill="white" stroke="#bfbfbf" points="148,-56.5 148,-75.5 195,-75.5 195,-56.5 148,-56.5"/>
<text text-anchor="middle" x="171.5" y="-63.5" font-family="Helvetica,sans-Serif" font-size="10.00">WiFi.h</text>
</a>
</g>
</g>
<!-- Node1&#45;&gt;Node5 -->
<g id="edge4" class="edge">
<title>Node1&#45;&gt;Node5</title>
<path fill="none" stroke="midnightblue" d="M149.79,-112.08C153.35,-104.69 158.52,-93.95 162.92,-84.81"/>
<polygon fill="midnightblue" stroke="midnightblue" points="166.1,-86.28 167.29,-75.75 159.79,-83.24 166.1,-86.28"/>
</g>
<!-- Node6 -->
<g id="node6" class="node">
<title>Node6</title>
<g id="a_node6"><a xlink:title=" ">
<polygon fill="white" stroke="#bfbfbf" points="213.5,-56.5 213.5,-75.5 275.5,-75.5 275.5,-56.5 213.5,-56.5"/>
<text text-anchor="middle" x="244.5" y="-63.5" font-family="Helvetica,sans-Serif" font-size="10.00">LittleFS.h</text>
</a>
</g>
</g>
<!-- Node1&#45;&gt;Node6 -->
<g id="edge6" class="edge">
<title>Node1&#45;&gt;Node6</title>
<path fill="none" stroke="midnightblue" d="M161.41,-112.32C177.14,-103.74 201.44,-90.49 219.71,-80.52"/>
<polygon fill="midnightblue" stroke="midnightblue" points="221.53,-83.52 228.63,-75.65 218.18,-77.37 221.53,-83.52"/>
</g>
<!-- Node3 -->
<g id="node3" class="node">
<title>Node3</title>
<g id="a_node3"><a xlink:title=" ">
<polygon fill="white" stroke="#bfbfbf" points="0,-0.5 0,-19.5 63,-19.5 63,-0.5 0,-0.5"/>
<text text-anchor="middle" x="31.5" y="-7.5" font-family="Helvetica,sans-Serif" font-size="10.00">Arduino.h</text>
</a>
</g>
</g>
<!-- Node2&#45;&gt;Node3 -->
<g id="edge2" class="edge">
<title>Node2&#45;&gt;Node3</title>
<path fill="none" stroke="midnightblue" d="M46.53,-56.08C44.12,-48.85 40.64,-38.41 37.63,-29.4"/>
<polygon fill="midnightblue" stroke="midnightblue" points="40.9,-28.13 34.42,-19.75 34.26,-30.34 40.9,-28.13"/>
</g>
<!-- Node2&#45;&gt;Node4 -->
<g id="edge3" class="edge">
<title>Node2&#45;&gt;Node4</title>
<path fill="none" stroke="midnightblue" d="M60.75,-56.32C71.3,-48.18 87.3,-35.84 99.94,-26.09"/>
<polygon fill="midnightblue" stroke="midnightblue" points="102.27,-28.71 108.05,-19.83 97.99,-23.17 102.27,-28.71"/>
</g>
</g>
</svg>
