<?xml version="1.0" encoding="UTF-8" standalone="no"?>
<!DOCTYPE svg PUBLIC "-//W3C//DTD SVG 1.1//EN"
 "http://www.w3.org/Graphics/SVG/1.1/DTD/svg11.dtd">
<!-- Generated by graphviz version 2.43.0 (0)
 -->
<!-- Title: src/main.cpp Pages: 1 -->
<svg width="791pt" height="196pt"
 viewBox="0.00 0.00 790.50 196.00" xmlns="http://www.w3.org/2000/svg" xmlns:xlink="http://www.w3.org/1999/xlink">
<g id="graph0" class="graph" transform="scale(1 1) rotate(0) translate(4 192)">
<title>src/main.cpp</title>
<polygon fill="white" stroke="transparent" points="-4,4 -4,-192 786.5,-192 786.5,4 -4,4"/>
<!-- Node1 -->
<g id="node1" class="node">
<title>Node1</title>
<g id="a_node1"><a xlink:title=" ">
<polygon fill="#bfbfbf" stroke="black" points="365,-168.5 365,-187.5 444,-187.5 444,-168.5 365,-168.5"/>
<text text-anchor="middle" x="404.5" y="-175.5" font-family="Helvetica,sans-Serif" font-size="10.00">src/main.cpp</text>
</a>
</g>
</g>
<!-- Node2 -->
<g id="node2" class="node">
<title>Node2</title>
<g id="a_node2"><a xlink:title=" ">
<polygon fill="white" stroke="#bfbfbf" points="0,-112.5 0,-131.5 47,-131.5 47,-112.5 0,-112.5"/>
<text text-anchor="middle" x="23.5" y="-119.5" font-family="Helvetica,sans-Serif" font-size="10.00">WiFi.h</text>
</a>
</g>
</g>
<!-- Node1&#45;&gt;Node2 -->
<g id="edge1" class="edge">
<title>Node1&#45;&gt;Node2</title>
<path fill="none" stroke="midnightblue" d="M364.94,-173.79C301.68,-168.26 173.78,-155.38 56.99,-132.06"/>
<polygon fill="midnightblue" stroke="midnightblue" points="57.67,-128.63 47.17,-130.07 56.28,-135.49 57.67,-128.63"/>
</g>
<!-- Node3 -->
<g id="node3" class="node">
<title>Node3</title>
<g id="a_node3"><a xlink:title=" ">
<polygon fill="white" stroke="#bfbfbf" points="356,-56.5 356,-75.5 433,-75.5 433,-56.5 356,-56.5"/>
<text text-anchor="middle" x="394.5" y="-63.5" font-family="Helvetica,sans-Serif" font-size="10.00">WebServer.h</text>
</a>
</g>
</g>
<!-- Node1&#45;&gt;Node3 -->
<g id="edge2" class="edge">
<title>Node1&#45;&gt;Node3</title>
<path fill="none" stroke="midnightblue" d="M403.72,-168.37C402.1,-150.62 398.38,-109.67 396.19,-85.6"/>
<polygon fill="midnightblue" stroke="midnightblue" points="399.67,-85.23 395.28,-75.59 392.7,-85.87 399.67,-85.23"/>
</g>
<!-- Node4 -->
<g id="node4" class="node">
<title>Node4</title>
<g id="a_node4"><a xlink:title=" ">
<polygon fill="white" stroke="#bfbfbf" points="174.5,-112.5 174.5,-131.5 236.5,-131.5 236.5,-112.5 174.5,-112.5"/>
<text text-anchor="middle" x="205.5" y="-119.5" font-family="Helvetica,sans-Serif" font-size="10.00">LittleFS.h</text>
</a>
</g>
</g>
<!-- Node1&#45;&gt;Node4 -->
<g id="edge3" class="edge">
<title>Node1&#45;&gt;Node4</title>
<path fill="none" stroke="midnightblue" d="M372.97,-168.44C338.81,-159.17 284.17,-144.35 246.65,-134.17"/>
<polygon fill="midnightblue" stroke="midnightblue" points="247.12,-130.67 236.56,-131.43 245.29,-137.42 247.12,-130.67"/>
</g>
<!-- Node5 -->
<g id="node5" class="node">
<title>Node5</title>
<g id="a_node5"><a xlink:title=" ">
<polygon fill="white" stroke="#bfbfbf" points="254.5,-112.5 254.5,-131.5 376.5,-131.5 376.5,-112.5 254.5,-112.5"/>
<text text-anchor="middle" x="315.5" y="-119.5" font-family="Helvetica,sans-Serif" font-size="10.00">hardware/watchdog.h</text>
</a>
</g>
</g>
<!-- Node1&#45;&gt;Node5 -->
<g id="edge4" class="edge">
<title>Node1&#45;&gt;Node5</title>
<path fill="none" stroke="midnightblue" d="M390.2,-168.32C376.32,-159.9 355.01,-146.97 338.7,-137.07"/>
<polygon fill="midnightblue" stroke="midnightblue" points="340.13,-133.85 329.76,-131.65 336.5,-139.83 340.13,-133.85"/>
</g>
<!-- Node6 -->
<g id="node6" class="node">
<title>Node6</title>
<g id="a_node6"><a xlink:href="wifi__manager_8h.html" target="_top" xlink:title="Declaraciones de funciones para la gestión WiFi y almacenamiento de credenciales.">
<polygon fill="white" stroke="black" points="65,-112.5 65,-131.5 156,-131.5 156,-112.5 65,-112.5"/>
<text text-anchor="middle" x="110.5" y="-119.5" font-family="Helvetica,sans-Serif" font-size="10.00">wifi_manager.h</text>
</a>
</g>
</g>
<!-- Node1&#45;&gt;Node6 -->
<g id="edge5" class="edge">
<title>Node1&#45;&gt;Node6</title>
<path fill="none" stroke="midnightblue" d="M364.85,-169.72C313.69,-160.32 224.39,-143.92 166.37,-133.26"/>
<polygon fill="midnightblue" stroke="midnightblue" points="166.74,-129.77 156.27,-131.41 165.47,-136.66 166.74,-129.77"/>
</g>
<!-- Node8 -->
<g id="node8" class="node">
<title>Node8</title>
<g id="a_node8"><a xlink:href="lcd__utils_8h.html" target="_top" xlink:title="Declaraciones del módulo de control de pantalla LCD (HD44780 I²C).">
<polygon fill="white" stroke="black" points="489.5,-56.5 489.5,-75.5 555.5,-75.5 555.5,-56.5 489.5,-56.5"/>
<text text-anchor="middle" x="522.5" y="-63.5" font-family="Helvetica,sans-Serif" font-size="10.00">lcd_utils.h</text>
</a>
</g>
</g>
<!-- Node1&#45;&gt;Node8 -->
<g id="edge8" class="edge">
<title>Node1&#45;&gt;Node8</title>
<path fill="none" stroke="midnightblue" d="M444.01,-173.77C471.85,-169.2 507.27,-158.23 525.5,-132 534.76,-118.68 532.69,-99.85 529.08,-85.88"/>
<polygon fill="midnightblue" stroke="midnightblue" points="532.31,-84.47 526.05,-75.92 525.61,-86.51 532.31,-84.47"/>
</g>
<!-- Node9 -->
<g id="node9" class="node">
<title>Node9</title>
<g id="a_node9"><a xlink:href="html__pages_8h.html" target="_top" xlink:title="Declaraciones del módulo de generación de páginas HTML para el portal web.">
<polygon fill="white" stroke="black" points="433,-112.5 433,-131.5 516,-131.5 516,-112.5 433,-112.5"/>
<text text-anchor="middle" x="474.5" y="-119.5" font-family="Helvetica,sans-Serif" font-size="10.00">html_pages.h</text>
</a>
</g>
</g>
<!-- Node1&#45;&gt;Node9 -->
<g id="edge10" class="edge">
<title>Node1&#45;&gt;Node9</title>
<path fill="none" stroke="midnightblue" d="M415.75,-168.32C426.3,-160.18 442.3,-147.84 454.94,-138.09"/>
<polygon fill="midnightblue" stroke="midnightblue" points="457.27,-140.71 463.05,-131.83 452.99,-135.17 457.27,-140.71"/>
</g>
<!-- Node10 -->
<g id="node10" class="node">
<title>Node10</title>
<g id="a_node10"><a xlink:href="lora__handler_8h.html" target="_top" xlink:title="Definición de las funciones SX1262 (RadioLib) para recepción de payload GNSS por LoRa.">
<polygon fill="white" stroke="black" points="592.5,-112.5 592.5,-131.5 678.5,-131.5 678.5,-112.5 592.5,-112.5"/>
<text text-anchor="middle" x="635.5" y="-119.5" font-family="Helvetica,sans-Serif" font-size="10.00">lora_handler.h</text>
</a>
</g>
</g>
<!-- Node1&#45;&gt;Node10 -->
<g id="edge13" class="edge">
<title>Node1&#45;&gt;Node10</title>
<path fill="none" stroke="midnightblue" d="M441.1,-168.44C481.23,-159.06 545.7,-143.99 589.28,-133.8"/>
<polygon fill="midnightblue" stroke="midnightblue" points="590.13,-137.2 599.07,-131.52 588.53,-130.38 590.13,-137.2"/>
</g>
<!-- Node12 -->
<g id="node12" class="node">
<title>Node12</title>
<g id="a_node12"><a xlink:href="gps__handler_8h.html" target="_top" xlink:title="Declaraciones del módulo GPS (TinyGPS++) para lectura y codificación de coordenadas.">
<polygon fill="white" stroke="black" points="697.5,-56.5 697.5,-75.5 781.5,-75.5 781.5,-56.5 697.5,-56.5"/>
<text text-anchor="middle" x="739.5" y="-63.5" font-family="Helvetica,sans-Serif" font-size="10.00">gps_handler.h</text>
</a>
</g>
</g>
<!-- Node1&#45;&gt;Node12 -->
<g id="edge19" class="edge">
<title>Node1&#45;&gt;Node12</title>
<path fill="none" stroke="midnightblue" d="M444.16,-174.22C511.98,-168.9 646.86,-155.64 687.5,-132 706.56,-120.91 721.37,-99.95 730.23,-84.83"/>
<polygon fill="midnightblue" stroke="midnightblue" points="733.39,-86.33 735.17,-75.89 727.27,-82.94 733.39,-86.33"/>
</g>
<!-- Node6&#45;&gt;Node3 -->
<g id="edge7" class="edge">
<title>Node6&#45;&gt;Node3</title>
<path fill="none" stroke="midnightblue" d="M155.5,-112.44C207.37,-102.58 292.31,-86.43 345.73,-76.27"/>
<polygon fill="midnightblue" stroke="midnightblue" points="346.47,-79.69 355.64,-74.39 345.16,-72.82 346.47,-79.69"/>
</g>
<!-- Node7 -->
<g id="node7" class="node">
<title>Node7</title>
<g id="a_node7"><a xlink:title=" ">
<polygon fill="white" stroke="#bfbfbf" points="491,-0.5 491,-19.5 554,-19.5 554,-0.5 491,-0.5"/>
<text text-anchor="middle" x="522.5" y="-7.5" font-family="Helvetica,sans-Serif" font-size="10.00">Arduino.h</text>
</a>
</g>
</g>
<!-- Node6&#45;&gt;Node7 -->
<g id="edge6" class="edge">
<title>Node6&#45;&gt;Node7</title>
<path fill="none" stroke="midnightblue" d="M141,-112.41C185.93,-99.79 272.57,-75.63 346.5,-56 392.42,-43.81 445.23,-30.38 480.93,-21.4"/>
<polygon fill="midnightblue" stroke="midnightblue" points="482.13,-24.71 490.98,-18.87 480.43,-17.92 482.13,-24.71"/>
</g>
<!-- Node8&#45;&gt;Node7 -->
<g id="edge9" class="edge">
<title>Node8&#45;&gt;Node7</title>
<path fill="none" stroke="midnightblue" d="M522.5,-56.08C522.5,-49.01 522.5,-38.86 522.5,-29.99"/>
<polygon fill="midnightblue" stroke="midnightblue" points="526,-29.75 522.5,-19.75 519,-29.75 526,-29.75"/>
</g>
<!-- Node9&#45;&gt;Node3 -->
<g id="edge12" class="edge">
<title>Node9&#45;&gt;Node3</title>
<path fill="none" stroke="midnightblue" d="M461.65,-112.32C449.28,-103.98 430.37,-91.21 415.76,-81.35"/>
<polygon fill="midnightblue" stroke="midnightblue" points="417.57,-78.35 407.32,-75.65 413.65,-84.15 417.57,-78.35"/>
</g>
<!-- Node9&#45;&gt;Node7 -->
<g id="edge11" class="edge">
<title>Node9&#45;&gt;Node7</title>
<path fill="none" stroke="midnightblue" d="M473.57,-112.14C472.58,-99.19 472.15,-74.61 480.5,-56 485.6,-44.62 494.78,-34.26 503.26,-26.36"/>
<polygon fill="midnightblue" stroke="midnightblue" points="505.79,-28.8 511.02,-19.59 501.18,-23.53 505.79,-28.8"/>
</g>
<!-- Node10&#45;&gt;Node7 -->
<g id="edge15" class="edge">
<title>Node10&#45;&gt;Node7</title>
<path fill="none" stroke="midnightblue" d="M626.63,-112.37C607.65,-93.89 562.86,-50.29 538.67,-26.74"/>
<polygon fill="midnightblue" stroke="midnightblue" points="540.93,-24.06 531.33,-19.59 536.05,-29.07 540.93,-24.06"/>
</g>
<!-- Node11 -->
<g id="node11" class="node">
<title>Node11</title>
<g id="a_node11"><a xlink:title=" ">
<polygon fill="white" stroke="#bfbfbf" points="611.5,-56.5 611.5,-75.5 679.5,-75.5 679.5,-56.5 611.5,-56.5"/>
<text text-anchor="middle" x="645.5" y="-63.5" font-family="Helvetica,sans-Serif" font-size="10.00">RadioLib.h</text>
</a>
</g>
</g>
<!-- Node10&#45;&gt;Node11 -->
<g id="edge14" class="edge">
<title>Node10&#45;&gt;Node11</title>
<path fill="none" stroke="midnightblue" d="M637.15,-112.08C638.48,-104.93 640.38,-94.64 642.04,-85.69"/>
<polygon fill="midnightblue" stroke="midnightblue" points="645.5,-86.22 643.88,-75.75 638.62,-84.95 645.5,-86.22"/>
</g>
<!-- Node10&#45;&gt;Node12 -->
<g id="edge16" class="edge">
<title>Node10&#45;&gt;Node12</title>
<path fill="none" stroke="midnightblue" d="M652.21,-112.32C668.81,-103.7 694.5,-90.36 713.72,-80.39"/>
<polygon fill="midnightblue" stroke="midnightblue" points="715.57,-83.37 722.83,-75.65 712.34,-77.16 715.57,-83.37"/>
</g>
<!-- Node12&#45;&gt;Node7 -->
<g id="edge17" class="edge">
<title>Node12&#45;&gt;Node7</title>
<path fill="none" stroke="midnightblue" d="M705.12,-56.44C666.89,-46.93 605.14,-31.57 564.19,-21.37"/>
<polygon fill="midnightblue" stroke="midnightblue" points="564.8,-17.92 554.25,-18.9 563.11,-24.71 564.8,-17.92"/>
</g>
<!-- Node13 -->
<g id="node13" class="node">
<title>Node13</title>
<g id="a_node13"><a xlink:title=" ">
<polygon fill="white" stroke="#bfbfbf" points="696.5,-0.5 696.5,-19.5 782.5,-19.5 782.5,-0.5 696.5,-0.5"/>
<text text-anchor="middle" x="739.5" y="-7.5" font-family="Helvetica,sans-Serif" font-size="10.00">TinyGPSPlus.h</text>
</a>
</g>
</g>
<!-- Node12&#45;&gt;Node13 -->
<g id="edge18" class="edge">
<title>Node12&#45;&gt;Node13</title>
<path fill="none" stroke="midnightblue" d="M739.5,-56.08C739.5,-49.01 739.5,-38.86 739.5,-29.99"/>
<polygon fill="midnightblue" stroke="midnightblue" points="743,-29.75 739.5,-19.75 736,-29.75 743,-29.75"/>
</g>
</g>
</svg>
