<?xml version="1.0" encoding="UTF-8" standalone="no"?>
<!DOCTYPE svg PUBLIC "-//W3C//DTD SVG 1.1//EN"
 "http://www.w3.org/Graphics/SVG/1.1/DTD/svg11.dtd">
<!-- Generated by graphviz version 2.43.0 (0)
 -->
<!-- Title: saveWiFiConf Pages: 1 -->
<svg width="316pt" height="28pt"
 viewBox="0.00 0.00 316.00 28.00" xmlns="http://www.w3.org/2000/svg" xmlns:xlink="http://www.w3.org/1999/xlink">
<g id="graph0" class="graph" transform="scale(1 1) rotate(0) translate(4 24)">
<title>saveWiFiConf</title>
<polygon fill="white" stroke="transparent" points="-4,4 -4,-24 312,-24 312,4 -4,4"/>
<!-- Node1 -->
<g id="node1" class="node">
<title>Node1</title>
<g id="a_node1"><a xlink:title="Guarda SSID y password (dos líneas) en CONFIG_FILE.">
<polygon fill="#bfbfbf" stroke="black" points="225,-0.5 225,-19.5 308,-19.5 308,-0.5 225,-0.5"/>
<text text-anchor="middle" x="266.5" y="-7.5" font-family="Helvetica,sans-Serif" font-size="10.00">saveWiFiConf</text>
</a>
</g>
</g>
<!-- Node2 -->
<g id="node2" class="node">
<title>Node2</title>
<g id="a_node2"><a xlink:href="wifi__manager_8cpp.html#a7366b308d83e321ec68741802ec46934" target="_top" xlink:title="POST /submit: guarda credenciales, redirige y programa reinicio.">
<polygon fill="white" stroke="black" points="80,-0.5 80,-19.5 189,-19.5 189,-0.5 80,-0.5"/>
<text text-anchor="middle" x="134.5" y="-7.5" font-family="Helvetica,sans-Serif" font-size="10.00">handleFormSubmit</text>
</a>
</g>
</g>
<!-- Node1&#45;&gt;Node2 -->
<g id="edge1" class="edge">
<title>Node1&#45;&gt;Node2</title>
<path fill="none" stroke="midnightblue" d="M214.66,-10C206.25,-10 197.5,-10 189.02,-10"/>
<polygon fill="midnightblue" stroke="midnightblue" points="214.72,-13.5 224.72,-10 214.72,-6.5 214.72,-13.5"/>
</g>
<!-- Node3 -->
<g id="node3" class="node">
<title>Node3</title>
<g id="a_node3"><a xlink:href="main_8cpp.html#a4fc01d736fe50cf5b977f755b675f11d" target="_top" xlink:title=" ">
<polygon fill="white" stroke="black" points="0,-0.5 0,-19.5 44,-19.5 44,-0.5 0,-0.5"/>
<text text-anchor="middle" x="22" y="-7.5" font-family="Helvetica,sans-Serif" font-size="10.00">setup</text>
</a>
</g>
</g>
<!-- Node2&#45;&gt;Node3 -->
<g id="edge2" class="edge">
<title>Node2&#45;&gt;Node3</title>
<path fill="none" stroke="midnightblue" d="M69.82,-10C60.62,-10 51.75,-10 44.24,-10"/>
<polygon fill="midnightblue" stroke="midnightblue" points="69.87,-13.5 79.87,-10 69.87,-6.5 69.87,-13.5"/>
</g>
</g>
</svg>
