<?xml version="1.0" encoding="UTF-8" standalone="no"?>
<!DOCTYPE svg PUBLIC "-//W3C//DTD SVG 1.1//EN"
 "http://www.w3.org/Graphics/SVG/1.1/DTD/svg11.dtd">
<!-- Generated by graphviz version 2.43.0 (0)
 -->
<!-- Title: src/wifi_manager.cpp Pages: 1 -->
<svg width="767pt" height="140pt"
 viewBox="0.00 0.00 767.00 140.00" xmlns="http://www.w3.org/2000/svg" xmlns:xlink="http://www.w3.org/1999/xlink">
<g id="graph0" class="graph" transform="scale(1 1) rotate(0) translate(4 136)">
<title>src/wifi_manager.cpp</title>
<polygon fill="white" stroke="transparent" points="-4,4 -4,-136 763,-136 763,4 -4,4"/>
<!-- Node1 -->
<g id="node1" class="node">
<title>Node1</title>
<g id="a_node1"><a xlink:title="Implementación de la gestión de conexión WiFi y configuración de red.">
<polygon fill="#bfbfbf" stroke="black" points="368.5,-112.5 368.5,-131.5 487.5,-131.5 487.5,-112.5 368.5,-112.5"/>
<text text-anchor="middle" x="428" y="-119.5" font-family="Helvetica,sans-Serif" font-size="10.00">src/wifi_manager.cpp</text>
</a>
</g>
</g>
<!-- Node2 -->
<g id="node2" class="node">
<title>Node2</title>
<g id="a_node2"><a xlink:title=" ">
<polygon fill="white" stroke="#bfbfbf" points="0,-56.5 0,-75.5 140,-75.5 140,-56.5 0,-56.5"/>
<text text-anchor="middle" x="70" y="-63.5" font-family="Helvetica,sans-Serif" font-size="10.00">hardware/structs/resets.h</text>
</a>
</g>
</g>
<!-- Node1&#45;&gt;Node2 -->
<g id="edge1" class="edge">
<title>Node1&#45;&gt;Node2</title>
<path fill="none" stroke="midnightblue" d="M371.27,-112.44C307.51,-102.83 204.1,-87.23 136.57,-77.04"/>
<polygon fill="midnightblue" stroke="midnightblue" points="136.87,-73.55 126.46,-75.52 135.83,-80.47 136.87,-73.55"/>
</g>
<!-- Node3 -->
<g id="node3" class="node">
<title>Node3</title>
<g id="a_node3"><a xlink:href="wifi__manager_8h.html" target="_top" xlink:title="Declaraciones de funciones para la gestión WiFi y almacenamiento de credenciales.">
<polygon fill="white" stroke="black" points="242.5,-56.5 242.5,-75.5 333.5,-75.5 333.5,-56.5 242.5,-56.5"/>
<text text-anchor="middle" x="288" y="-63.5" font-family="Helvetica,sans-Serif" font-size="10.00">wifi_manager.h</text>
</a>
</g>
</g>
<!-- Node1&#45;&gt;Node3 -->
<g id="edge2" class="edge">
<title>Node1&#45;&gt;Node3</title>
<path fill="none" stroke="midnightblue" d="M405.82,-112.44C382.57,-103.48 345.85,-89.31 319.58,-79.18"/>
<polygon fill="midnightblue" stroke="midnightblue" points="320.67,-75.85 310.08,-75.52 318.15,-82.38 320.67,-75.85"/>
</g>
<!-- Node5 -->
<g id="node5" class="node">
<title>Node5</title>
<g id="a_node5"><a xlink:title=" ">
<polygon fill="white" stroke="#bfbfbf" points="354.5,-0.5 354.5,-19.5 431.5,-19.5 431.5,-0.5 354.5,-0.5"/>
<text text-anchor="middle" x="393" y="-7.5" font-family="Helvetica,sans-Serif" font-size="10.00">WebServer.h</text>
</a>
</g>
</g>
<!-- Node1&#45;&gt;Node5 -->
<g id="edge7" class="edge">
<title>Node1&#45;&gt;Node5</title>
<path fill="none" stroke="midnightblue" d="M433.67,-112.26C441.2,-99.46 452.6,-75.07 444,-56 438.38,-43.56 427.44,-33.17 417.12,-25.53"/>
<polygon fill="midnightblue" stroke="midnightblue" points="418.96,-22.54 408.73,-19.76 414.99,-28.31 418.96,-22.54"/>
</g>
<!-- Node6 -->
<g id="node6" class="node">
<title>Node6</title>
<g id="a_node6"><a xlink:title=" ">
<polygon fill="white" stroke="#bfbfbf" points="491.5,-56.5 491.5,-75.5 538.5,-75.5 538.5,-56.5 491.5,-56.5"/>
<text text-anchor="middle" x="515" y="-63.5" font-family="Helvetica,sans-Serif" font-size="10.00">WiFi.h</text>
</a>
</g>
</g>
<!-- Node1&#45;&gt;Node6 -->
<g id="edge5" class="edge">
<title>Node1&#45;&gt;Node6</title>
<path fill="none" stroke="midnightblue" d="M441.98,-112.32C455.55,-103.9 476.38,-90.97 492.32,-81.07"/>
<polygon fill="midnightblue" stroke="midnightblue" points="494.41,-83.9 501.06,-75.65 490.71,-77.95 494.41,-83.9"/>
</g>
<!-- Node7 -->
<g id="node7" class="node">
<title>Node7</title>
<g id="a_node7"><a xlink:title=" ">
<polygon fill="white" stroke="#bfbfbf" points="557,-56.5 557,-75.5 619,-75.5 619,-56.5 557,-56.5"/>
<text text-anchor="middle" x="588" y="-63.5" font-family="Helvetica,sans-Serif" font-size="10.00">LittleFS.h</text>
</a>
</g>
</g>
<!-- Node1&#45;&gt;Node7 -->
<g id="edge6" class="edge">
<title>Node1&#45;&gt;Node7</title>
<path fill="none" stroke="midnightblue" d="M453.35,-112.44C480.27,-103.36 523,-88.94 553.09,-78.78"/>
<polygon fill="midnightblue" stroke="midnightblue" points="554.41,-82.03 562.77,-75.52 552.17,-75.4 554.41,-82.03"/>
</g>
<!-- Node8 -->
<g id="node8" class="node">
<title>Node8</title>
<g id="a_node8"><a xlink:href="lcd__utils_8h.html" target="_top" xlink:title="Declaraciones del módulo de control de pantalla LCD (HD44780 I²C).">
<polygon fill="white" stroke="black" points="158,-56.5 158,-75.5 224,-75.5 224,-56.5 158,-56.5"/>
<text text-anchor="middle" x="191" y="-63.5" font-family="Helvetica,sans-Serif" font-size="10.00">lcd_utils.h</text>
</a>
</g>
</g>
<!-- Node1&#45;&gt;Node8 -->
<g id="edge8" class="edge">
<title>Node1&#45;&gt;Node8</title>
<path fill="none" stroke="midnightblue" d="M390.45,-112.44C347.94,-102.76 278.83,-87.01 234.14,-76.83"/>
<polygon fill="midnightblue" stroke="midnightblue" points="234.7,-73.37 224.17,-74.56 233.14,-80.19 234.7,-73.37"/>
</g>
<!-- Node9 -->
<g id="node9" class="node">
<title>Node9</title>
<g id="a_node9"><a xlink:href="html__pages_8h.html" target="_top" xlink:title="Declaraciones del módulo de generación de páginas HTML para el portal web.">
<polygon fill="white" stroke="black" points="351.5,-56.5 351.5,-75.5 434.5,-75.5 434.5,-56.5 351.5,-56.5"/>
<text text-anchor="middle" x="393" y="-63.5" font-family="Helvetica,sans-Serif" font-size="10.00">html_pages.h</text>
</a>
</g>
</g>
<!-- Node1&#45;&gt;Node9 -->
<g id="edge10" class="edge">
<title>Node1&#45;&gt;Node9</title>
<path fill="none" stroke="midnightblue" d="M422.22,-112.08C417.33,-104.53 410.17,-93.49 404.17,-84.23"/>
<polygon fill="midnightblue" stroke="midnightblue" points="407.05,-82.24 398.67,-75.75 401.17,-86.05 407.05,-82.24"/>
</g>
<!-- Node10 -->
<g id="node10" class="node">
<title>Node10</title>
<g id="a_node10"><a xlink:title=" ">
<polygon fill="white" stroke="#bfbfbf" points="637,-56.5 637,-75.5 759,-75.5 759,-56.5 637,-56.5"/>
<text text-anchor="middle" x="698" y="-63.5" font-family="Helvetica,sans-Serif" font-size="10.00">hardware/watchdog.h</text>
</a>
</g>
</g>
<!-- Node1&#45;&gt;Node10 -->
<g id="edge13" class="edge">
<title>Node1&#45;&gt;Node10</title>
<path fill="none" stroke="midnightblue" d="M470.78,-112.44C518.18,-102.96 594.63,-87.67 645.58,-77.48"/>
<polygon fill="midnightblue" stroke="midnightblue" points="646.3,-80.91 655.42,-75.52 644.93,-74.05 646.3,-80.91"/>
</g>
<!-- Node4 -->
<g id="node4" class="node">
<title>Node4</title>
<g id="a_node4"><a xlink:title=" ">
<polygon fill="white" stroke="#bfbfbf" points="256.5,-0.5 256.5,-19.5 319.5,-19.5 319.5,-0.5 256.5,-0.5"/>
<text text-anchor="middle" x="288" y="-7.5" font-family="Helvetica,sans-Serif" font-size="10.00">Arduino.h</text>
</a>
</g>
</g>
<!-- Node3&#45;&gt;Node4 -->
<g id="edge3" class="edge">
<title>Node3&#45;&gt;Node4</title>
<path fill="none" stroke="midnightblue" d="M288,-56.08C288,-49.01 288,-38.86 288,-29.99"/>
<polygon fill="midnightblue" stroke="midnightblue" points="291.5,-29.75 288,-19.75 284.5,-29.75 291.5,-29.75"/>
</g>
<!-- Node3&#45;&gt;Node5 -->
<g id="edge4" class="edge">
<title>Node3&#45;&gt;Node5</title>
<path fill="none" stroke="midnightblue" d="M304.87,-56.32C321.71,-47.66 347.81,-34.24 367.24,-24.25"/>
<polygon fill="midnightblue" stroke="midnightblue" points="368.88,-27.34 376.17,-19.65 365.68,-21.12 368.88,-27.34"/>
</g>
<!-- Node8&#45;&gt;Node4 -->
<g id="edge9" class="edge">
<title>Node8&#45;&gt;Node4</title>
<path fill="none" stroke="midnightblue" d="M206.58,-56.32C222,-47.74 245.81,-34.49 263.71,-24.52"/>
<polygon fill="midnightblue" stroke="midnightblue" points="265.42,-27.58 272.45,-19.65 262.01,-21.46 265.42,-27.58"/>
</g>
<!-- Node9&#45;&gt;Node4 -->
<g id="edge11" class="edge">
<title>Node9&#45;&gt;Node4</title>
<path fill="none" stroke="midnightblue" d="M376.13,-56.32C359.29,-47.66 333.19,-34.24 313.76,-24.25"/>
<polygon fill="midnightblue" stroke="midnightblue" points="315.32,-21.12 304.83,-19.65 312.12,-27.34 315.32,-21.12"/>
</g>
<!-- Node9&#45;&gt;Node5 -->
<g id="edge12" class="edge">
<title>Node9&#45;&gt;Node5</title>
<path fill="none" stroke="midnightblue" d="M393,-56.08C393,-49.01 393,-38.86 393,-29.99"/>
<polygon fill="midnightblue" stroke="midnightblue" points="396.5,-29.75 393,-19.75 389.5,-29.75 396.5,-29.75"/>
</g>
</g>
</svg>
