<?xml version="1.0" encoding="UTF-8" standalone="no"?>
<!DOCTYPE svg PUBLIC "-//W3C//DTD SVG 1.1//EN"
 "http://www.w3.org/Graphics/SVG/1.1/DTD/svg11.dtd">
<!-- Generated by graphviz version 2.43.0 (0)
 -->
<!-- Title: loadWiFiConf Pages: 1 -->
<svg width="313pt" height="28pt"
 viewBox="0.00 0.00 313.00 28.00" xmlns="http://www.w3.org/2000/svg" xmlns:xlink="http://www.w3.org/1999/xlink">
<g id="graph0" class="graph" transform="scale(1 1) rotate(0) translate(4 24)">
<title>loadWiFiConf</title>
<polygon fill="white" stroke="transparent" points="-4,4 -4,-24 309,-24 309,4 -4,4"/>
<!-- Node1 -->
<g id="node1" class="node">
<title>Node1</title>
<g id="a_node1"><a xlink:title="Carga SSID y password de CONFIG_FILE.">
<polygon fill="#bfbfbf" stroke="black" points="224,-0.5 224,-19.5 305,-19.5 305,-0.5 224,-0.5"/>
<text text-anchor="middle" x="264.5" y="-7.5" font-family="Helvetica,sans-Serif" font-size="10.00">loadWiFiConf</text>
</a>
</g>
</g>
<!-- Node2 -->
<g id="node2" class="node">
<title>Node2</title>
<g id="a_node2"><a xlink:href="wifi__manager_8cpp.html#a10827b8bfa7fec1b64a733df6e192f74" target="_top" xlink:title="Conexión inicial: intenta STA; si falla, levanta AP y guía por LCD al usuario.">
<polygon fill="white" stroke="black" points="80,-0.5 80,-19.5 188,-19.5 188,-0.5 80,-0.5"/>
<text text-anchor="middle" x="134" y="-7.5" font-family="Helvetica,sans-Serif" font-size="10.00">initWiFiConnection</text>
</a>
</g>
</g>
<!-- Node1&#45;&gt;Node2 -->
<g id="edge1" class="edge">
<title>Node1&#45;&gt;Node2</title>
<path fill="none" stroke="midnightblue" d="M213.65,-10C205.38,-10 196.77,-10 188.42,-10"/>
<polygon fill="midnightblue" stroke="midnightblue" points="213.9,-13.5 223.9,-10 213.9,-6.5 213.9,-13.5"/>
</g>
<!-- Node3 -->
<g id="node3" class="node">
<title>Node3</title>
<g id="a_node3"><a xlink:href="main_8cpp.html#a4fc01d736fe50cf5b977f755b675f11d" target="_top" xlink:title=" ">
<polygon fill="white" stroke="black" points="0,-0.5 0,-19.5 44,-19.5 44,-0.5 0,-0.5"/>
<text text-anchor="middle" x="22" y="-7.5" font-family="Helvetica,sans-Serif" font-size="10.00">setup</text>
</a>
</g>
</g>
<!-- Node2&#45;&gt;Node3 -->
<g id="edge2" class="edge">
<title>Node2&#45;&gt;Node3</title>
<path fill="none" stroke="midnightblue" d="M69.8,-10C60.53,-10 51.57,-10 44.02,-10"/>
<polygon fill="midnightblue" stroke="midnightblue" points="69.93,-13.5 79.93,-10 69.93,-6.5 69.93,-13.5"/>
</g>
</g>
</svg>
