<?xml version="1.0" encoding="UTF-8" standalone="no"?>
<!DOCTYPE svg PUBLIC "-//W3C//DTD SVG 1.1//EN"
 "http://www.w3.org/Graphics/SVG/1.1/DTD/svg11.dtd">
<!-- Generated by graphviz version 2.43.0 (0)
 -->
<!-- Title: handleFormSubmit Pages: 1 -->
<svg width="258pt" height="66pt"
 viewBox="0.00 0.00 258.00 66.00" xmlns="http://www.w3.org/2000/svg" xmlns:xlink="http://www.w3.org/1999/xlink">
<g id="graph0" class="graph" transform="scale(1 1) rotate(0) translate(4 62)">
<title>handleFormSubmit</title>
<polygon fill="white" stroke="transparent" points="-4,4 -4,-62 254,-62 254,4 -4,4"/>
<!-- Node1 -->
<g id="node1" class="node">
<title>Node1</title>
<g id="a_node1"><a xlink:title="Manejador del POST de formulario (/submit): guarda y redirige.">
<polygon fill="#bfbfbf" stroke="black" points="0,-19.5 0,-38.5 109,-38.5 109,-19.5 0,-19.5"/>
<text text-anchor="middle" x="54.5" y="-26.5" font-family="Helvetica,sans-Serif" font-size="10.00">handleFormSubmit</text>
</a>
</g>
</g>
<!-- Node2 -->
<g id="node2" class="node">
<title>Node2</title>
<g id="a_node2"><a xlink:href="wifi__manager_8cpp.html#a09c0390501244c73dac7006a4a254d47" target="_top" xlink:title="Guarda SSID y password (dos líneas) en CONFIG_FILE.">
<polygon fill="white" stroke="black" points="156,-38.5 156,-57.5 239,-57.5 239,-38.5 156,-38.5"/>
<text text-anchor="middle" x="197.5" y="-45.5" font-family="Helvetica,sans-Serif" font-size="10.00">saveWiFiConf</text>
</a>
</g>
</g>
<!-- Node1&#45;&gt;Node2 -->
<g id="edge1" class="edge">
<title>Node1&#45;&gt;Node2</title>
<path fill="none" stroke="midnightblue" d="M109.21,-36.24C121.13,-37.84 133.72,-39.54 145.53,-41.13"/>
<polygon fill="midnightblue" stroke="midnightblue" points="145.28,-44.63 155.66,-42.5 146.22,-37.69 145.28,-44.63"/>
</g>
<!-- Node3 -->
<g id="node3" class="node">
<title>Node3</title>
<g id="a_node3"><a xlink:href="lcd__utils_8cpp.html#a28d0b9d595f60ae4ca04a6a9d7e11ef5" target="_top" xlink:title="Muestra un mensaje en la pantalla LCD (máx. 2 líneas).">
<polygon fill="white" stroke="black" points="145,-0.5 145,-19.5 250,-19.5 250,-0.5 145,-0.5"/>
<text text-anchor="middle" x="197.5" y="-7.5" font-family="Helvetica,sans-Serif" font-size="10.00">showLCDMessage</text>
</a>
</g>
</g>
<!-- Node1&#45;&gt;Node3 -->
<g id="edge2" class="edge">
<title>Node1&#45;&gt;Node3</title>
<path fill="none" stroke="midnightblue" d="M109.21,-21.76C117.6,-20.63 126.33,-19.46 134.88,-18.3"/>
<polygon fill="midnightblue" stroke="midnightblue" points="135.36,-21.77 144.8,-16.97 134.42,-14.83 135.36,-21.77"/>
</g>
</g>
</svg>
